<?xml version="1.0" encoding="UTF-8"?>
<svg xmlns="http://www.w3.org/2000/svg" version="1.1" viewBox="0 0 2521 2911">
  <!-- Generator: Adobe Illustrator 30.3.0, SVG Export Plug-In . SVG Version: 2.1.3 Build 182)  -->
  <defs>
    <style>
      .st0 {
        fill: #cd792c;
      }

      .st1 {
        fill: #24292e;
      }

      .st2 {
        fill: #adbac7;
      }
    </style>
  </defs>
  <g id="Layer_2">
    <path class="st1" d="M1260.5,0L0,727.8v1455.4l1260.5,727.8,1260.5-727.8V727.8L1260.5,0h0Z"/>
  </g>
  <g id="Layer_3">
    <g>
      <g>
        <path class="st2" d="M702.5,1939.1c0,25.2-3.6,48.2-10.8,69.2-7.2,20.7-17.4,38.3-30.6,52.8-12.2,13.7-26.7,24.4-43.3,31.9-16.5,7.4-34,11.1-52.5,11.1-16.1,0-30.7-1.8-43.9-5.3-13-3.5-26.2-9-39.7-16.4v130h-52.2v-424.8h52.2v32.5c13.9-11.7,29.4-21.4,46.7-29.2,17.4-8,35.9-12,55.6-12,37.4,0,66.5,14.2,87.2,42.5,20.9,28.2,31.4,67.3,31.4,117.5h0ZM648.6,1940.5c0-37.4-6.4-65.4-19.2-83.9-12.8-18.5-32.4-27.8-58.9-27.8-15,0-30.1,3.2-45.3,9.7-15.2,6.5-29.7,15-43.6,25.6v175.8c14.8,6.7,27.5,11.2,38.1,13.6,10.7,2.4,22.9,3.6,36.4,3.6,29.1,0,51.8-9.8,68.1-29.4,16.3-19.6,24.4-48.7,24.4-87.2h0ZM1048.4,1943c0,50.6-13,90.5-38.9,119.7-25.9,29.3-60.7,43.9-104.2,43.9-43.9,0-78.8-14.6-104.7-43.9-25.7-29.3-38.6-69.2-38.6-119.7s12.9-90.5,38.6-119.7c25.9-29.4,60.8-44.2,104.7-44.2,43.5,0,78.2,14.7,104.2,44.2,25.9,29.3,38.9,69.2,38.9,119.7h0ZM994.5,1943c0-40.2-7.9-70-23.6-89.5-15.7-19.6-37.6-29.4-65.6-29.4-28.3,0-50.4,9.8-66.1,29.4-15.6,19.4-23.3,49.3-23.3,89.5s7.9,68.4,23.6,88.6c15.7,20,37.7,30,65.8,30,27.8,0,49.5-9.9,65.3-29.7,15.9-20,23.9-49.6,23.9-88.9h0ZM1182,2098h-52.2v-432.3h52.2v432.3ZM1526.5,2098h-51.9v-33.1c-4.6,3.1-10.9,7.6-18.9,13.3-7.8,5.6-15.4,10-22.8,13.3-8.7,4.3-18.7,7.8-30,10.6-11.3,3-24.5,4.4-39.7,4.4-28,0-51.7-9.3-71.1-27.8-19.4-18.5-29.2-42.1-29.2-70.8s5-42.5,15-56.9c10.2-14.6,24.6-26.1,43.3-34.4,18.9-8.3,41.6-14,68.1-16.9,26.5-3,54.9-5.2,85.3-6.7v-8.1c0-11.9-2.1-21.7-6.4-29.4-4.1-7.8-10-13.9-17.8-18.3-7.4-4.3-16.3-7.1-26.7-8.6-10.4-1.5-21.2-2.2-32.5-2.2-13.7,0-29,1.9-45.8,5.6-16.9,3.5-34.3,8.7-52.2,15.6h-2.8v-53.1c10.2-2.8,24.9-5.8,44.2-9.2,19.3-3.3,38.2-5,56.9-5s40.8,1.9,56.9,5.6c16.3,3.5,30.4,9.6,42.2,18.3,11.7,8.5,20.6,19.5,26.7,33.1,6.1,13.5,9.2,30.3,9.2,50.3v210.6ZM1474.5,2021.6v-86.4c-15.9.9-34.7,2.3-56.4,4.2-21.5,1.9-38.5,4.5-51.1,8.1-15,4.3-27.1,10.9-36.4,20-9.3,8.9-13.9,21.2-13.9,36.9s5.4,31.2,16.1,40.3c10.7,8.9,27.1,13.3,49.2,13.3s35.1-3.5,50.3-10.6c15.2-7.2,29.3-15.8,42.2-25.8h0Z"/>
        <path class="st0" d="M1820.7,1844.7h-2.8c-7.8-1.9-15.4-3.1-22.8-3.9-7.2-.9-15.8-1.4-25.8-1.4-16.1,0-31.7,3.6-46.7,10.8-15,7-29.4,16.2-43.3,27.5v220.3h-52.2v-310.3h52.2v45.8c20.7-16.7,39-28.4,54.7-35.3,15.9-7,32.1-10.6,48.6-10.6,9.1,0,15.7.3,19.7.8,4.1.4,10.2,1.2,18.3,2.5v53.6Z"/>
        <path class="st0" d="M2091.5,2008.6c0,28.3-11.8,51.6-35.3,69.7-23.3,18.1-55.3,27.2-95.8,27.2-23,0-44.1-2.7-63.3-8.1-19.1-5.6-35.1-11.6-48.1-18.1v-58.6h2.8c16.5,12.4,34.8,22.3,55,29.7,20.2,7.2,39.5,10.8,58.1,10.8,23,0,40.9-3.7,53.9-11.1,13-7.4,19.4-19.1,19.4-35s-3.5-21.5-10.6-27.8c-7-6.3-20.6-11.7-40.6-16.1-7.4-1.7-17.1-3.6-29.2-5.8-11.9-2.2-22.7-4.6-32.5-7.2-27.2-7.2-46.6-17.8-58.1-31.7-11.3-14.1-16.9-31.3-16.9-51.7s2.6-24.8,7.8-36.1c5.4-11.3,13.4-21.4,24.2-30.3,10.4-8.7,23.5-15.6,39.4-20.6,16.1-5.2,34.1-7.8,53.9-7.8s37.2,2.3,56.1,6.9c19.1,4.4,34.9,9.9,47.5,16.4v55.8h-2.8c-13.3-9.8-29.5-18.1-48.6-24.7-19.1-6.8-37.8-10.3-56.1-10.3s-35.2,3.7-48.3,11.1c-13.1,7.2-19.7,18.1-19.7,32.5s4,22.4,11.9,28.9c7.8,6.5,20.4,11.8,37.8,15.8,9.6,2.2,20.4,4.4,32.2,6.7,12,2.2,22,4.3,30,6.1,24.3,5.6,43,15.1,56.1,28.6,13.1,13.7,19.7,31.9,19.7,54.4h0Z"/>
      </g>
      <g>
        <rect class="st2" x="429.5" y="1319.8" width="57.1" height="160.9" rx="9.3" ry="9.3"/>
        <rect class="st2" x="514" y="1132.9" width="57.1" height="200.4" rx="13.5" ry="13.5"/>
        <rect class="st2" x="514" y="1356.2" width="57.1" height="169.2" rx="9.3" ry="9.3"/>
        <rect class="st2" x="598.6" y="944.2" width="57.1" height="300.6" rx="9.3" ry="9.3"/>
        <rect class="st2" x="598.6" y="1271.4" width="57.1" height="106.1" rx="9.3" ry="9.3"/>
        <rect class="st2" x="598.6" y="1448.8" width="57.1" height="76.6" rx="13.5" ry="13.5"/>
        <rect class="st2" x="683.2" y="810.5" width="57.1" height="218.1" rx="9.3" ry="9.3"/>
        <path class="st2" d="M692.5,1052.9h38.4c5.1,0,9.3,4.2,9.3,9.3v270.3c0,5.1-4.2,9.3-9.3,9.3h-38.4c-5.1,0-9.3-4.2-9.3-9.3v-270.3c0-5.1,4.2-9.3,9.3-9.3Z"/>
        <rect class="st2" x="767.7" y="769.4" width="57.1" height="151.7" rx="9.3" ry="9.3"/>
        <rect class="st2" x="767.8" y="944.4" width="57.1" height="210" rx="9.3" ry="9.3"/>
        <rect class="st2" x="767.8" y="1182" width="57.1" height="190.6" rx="9.3" ry="9.3"/>
        <rect class="st2" x="852.3" y="736" width="57.1" height="276.7" rx="13.5" ry="13.5"/>
        <rect class="st2" x="852.3" y="1040.3" width="57.1" height="85" rx="13.5" ry="13.5"/>
        <rect class="st2" x="852.3" y="1144.5" width="57" height="285" rx="13.5" ry="13.5"/>
        <rect class="st2" x="936.9" y="702.7" width="57.1" height="76.6" rx="13.5" ry="13.5"/>
        <rect class="st2" x="936.9" y="802.7" width="57.1" height="410.1" rx="13.5" ry="13.5"/>
        <rect class="st2" x="936.9" y="1240.4" width="57.1" height="130.8" rx="13.5" ry="13.5"/>
        <rect class="st2" x="936.9" y="1398.8" width="57.1" height="93.3" rx="13.5" ry="13.5"/>
        <rect class="st2" x="1021.5" y="1377.9" width="57.1" height="147.5" rx="13.5" ry="13.5"/>
        <rect class="st2" x="1021.5" y="961.1" width="57.1" height="322.5" rx="13.5" ry="13.5"/>
        <rect class="st2" x="1021.5" y="698.5" width="57.1" height="235" rx="13.5" ry="13.5"/>
        <rect class="st2" x="1106" y="1440.4" width="57.1" height="85" rx="13.5" ry="13.5"/>
        <rect class="st2" x="1106" y="702.7" width="57.1" height="380.9" rx="13.5" ry="13.5"/>
        <rect class="st2" x="1106" y="1111.2" width="57.1" height="172.5" rx="13.5" ry="13.5"/>
        <rect class="st2" x="1190.6" y="719.4" width="57.1" height="126.6" rx="13.5" ry="13.5"/>
        <rect class="st2" x="1190.6" y="873.6" width="57.1" height="410.1" rx="13.5" ry="13.5"/>
        <rect class="st2" x="1275.2" y="727.7" width="57.1" height="247.5" rx="13.5" ry="13.5"/>
        <rect class="st2" x="1275.2" y="1002.8" width="57.1" height="210" rx="13.5" ry="13.5"/>
        <rect class="st2" x="1275.2" y="1240.3" width="57.1" height="110" rx="13.5" ry="13.5"/>
        <rect class="st2" x="1359.2" y="740.2" width="57.1" height="368.4" rx="13.5" ry="13.5"/>
        <rect class="st2" x="1359.2" y="1136.2" width="57.1" height="297.5" rx="13.5" ry="13.5"/>
        <rect class="st2" x="1443.2" y="727.7" width="57.1" height="172.5" rx="13.5" ry="13.5"/>
        <rect class="st2" x="1443.2" y="927.8" width="57.1" height="451.8" rx="13.5" ry="13.5"/>
        <rect class="st2" x="1443.2" y="1407.1" width="57.1" height="105.8" rx="13.5" ry="13.5"/>
        <rect class="st2" x="1527.8" y="1382.1" width="57.1" height="143.3" rx="13.5" ry="13.5"/>
        <rect class="st2" x="1527.8" y="1027.8" width="57.1" height="105.8" rx="13.5" ry="13.5"/>
        <rect class="st2" x="1527.8" y="723.5" width="57.1" height="276.7" rx="13.5" ry="13.5"/>
        <rect class="st2" x="1613.5" y="744.4" width="57.1" height="343.4" rx="13.5" ry="13.5"/>
        <rect class="st2" x="1613.5" y="1448.8" width="57.1" height="76.6" rx="13.5" ry="13.5"/>
        <rect class="st2" x="1696.9" y="769.4" width="57.1" height="105.8" rx="13.5" ry="13.5"/>
        <rect class="st2" x="1696.9" y="902.8" width="57.1" height="176.7" rx="13.5" ry="13.5"/>
        <rect class="st2" x="1782.5" y="790.2" width="57.1" height="76.6" rx="13.5" ry="13.5"/>
        <rect class="st2" x="1782.5" y="890.2" width="57.1" height="72.5" rx="13.5" ry="13.5"/>
        <rect class="st2" x="1782.5" y="986.1" width="57.1" height="101.6" rx="13.5" ry="13.5"/>
        <rect class="st2" x="1867.1" y="815.2" width="57.1" height="285" rx="13.5" ry="13.5"/>
        <rect class="st2" x="1951.1" y="890.2" width="57.1" height="201.7" rx="13.5" ry="13.5"/>
        <rect class="st2" x="2034.5" y="986.1" width="57.1" height="76.6" rx="13.5" ry="13.5"/>
      </g>
    </g>
  </g>
</svg>