<?xml version="1.0" encoding="UTF-8"?><svg id="a" xmlns="http://www.w3.org/2000/svg" viewBox="0 0 32 32"><path d="M16.022.526C7.262.526.158,7.629.158,16.393c0,7.009,4.546,12.956,10.851,15.054.793.146,1.083-.344,1.083-.765,0-.377-.014-1.374-.021-2.698-4.413.959-5.344-2.127-5.344-2.127-.721-1.833-1.762-2.321-1.762-2.321-1.44-.984.109-.964.109-.964,1.592.112,2.43,1.635,2.43,1.635,1.415,2.425,3.713,1.724,4.617,1.318.144-1.025.554-1.724,1.007-2.121-3.523-.4-7.227-1.762-7.227-7.841,0-1.732.618-3.148,1.633-4.257-.163-.401-.708-2.014.156-4.199,0,0,1.332-.427,4.363,1.626,1.265-.352,2.623-.528,3.972-.534,1.347.006,2.705.182,3.972.534,3.029-2.053,4.359-1.626,4.359-1.626.866,2.184.321,3.797.158,4.199,1.017,1.109,1.631,2.525,1.631,4.257,0,6.095-3.709,7.436-7.244,7.829.57.49,1.077,1.458,1.077,2.938,0,2.121-.019,3.832-.019,4.352,0,.424.286.918,1.091.763,6.299-2.102,10.841-8.045,10.841-15.052C31.889,7.629,24.785.526,16.022.526Z" style="fill:#414141; fill-rule:evenodd;"/></svg>