<?xml version="1.0" encoding="UTF-8"?><svg id="a" xmlns="http://www.w3.org/2000/svg" viewBox="0 0 274.9 309.739"><path d="M90.334,191.609c-1.998,3.043-2.996,7.607-2.996,13.69,0,4.032.44,7.422,1.319,10.172.88,2.749,2.254,4.82,4.124,6.212.861.642,1.848,1.129,2.95,1.475,1.081-.346,2.046-.837,2.893-1.475,1.851-1.392,3.207-3.464,4.069-6.212.861-2.75,1.292-6.139,1.292-10.172,0-4.069-.431-7.45-1.292-10.144-.862-2.694-2.227-4.719-4.096-6.075-.856-.62-1.83-1.099-2.924-1.435-2.277.701-4.06,2.018-5.338,3.964Z" style="fill:none;"/><path d="M245.28,259.651c-.615-.41-1.292-.745-2.029-1.007-1.455.52-2.758,1.326-3.897,2.437-2.144,2.089-3.381,5.37-3.711,9.842h14.833c-.037-2.492-.486-4.71-1.347-6.653-.862-1.942-2.144-3.482-3.849-4.618Z" style="fill:none;"/><path d="M112.52,41.703c.824-2.766,1.237-6.148,1.237-10.144,0-6.011-.935-10.538-2.804-13.58-1.155-1.879-2.701-3.178-4.64-3.897-.87.289-1.65.669-2.331,1.147-1.723,1.21-2.979,3.024-3.766,5.443-.789,2.419-1.219,5.48-1.292,9.182v1.814c0,3.959.375,7.313,1.127,10.061.751,2.749,2.015,4.839,3.794,6.268.755.607,1.637,1.077,2.633,1.427.858-.349,1.635-.824,2.33-1.427,1.65-1.429,2.887-3.527,3.712-6.295Z" style="fill:none;"/><path d="M139.226,93.089c-.615-.41-1.292-.745-2.029-1.007-1.455.52-2.758,1.326-3.897,2.437-2.144,2.089-3.382,5.37-3.712,9.841h14.833c-.037-2.492-.486-4.709-1.347-6.653-.862-1.943-2.144-3.482-3.848-4.618Z" style="fill:none;"/><path d="M28.795,18.089c-1.998,3.043-2.996,7.606-2.996,13.69,0,4.032.44,7.422,1.319,10.171.88,2.749,2.254,4.82,4.124,6.213.861.642,1.848,1.129,2.95,1.475,1.081-.346,2.046-.837,2.893-1.475,1.85-1.392,3.207-3.464,4.068-6.213.861-2.749,1.292-6.139,1.292-10.171,0-4.069-.431-7.45-1.292-10.144-.862-2.694-2.226-4.719-4.096-6.076-.856-.62-1.831-1.099-2.924-1.435-2.277.701-4.06,2.018-5.338,3.965Z" style="fill:none;"/><path d="M31.242,48.163c-1.87-1.392-3.244-3.464-4.124-6.213-.88-2.749-1.319-6.139-1.319-10.171,0-6.084.998-10.648,2.996-13.69,1.278-1.947,3.062-3.264,5.338-3.965-.005-.001-.009-.003-.014-.005-1.292-.396-2.75-.594-4.374-.594-4.435,0-7.652,1.522-9.649,4.564-1.998,3.043-2.996,7.606-2.996,13.69,0,4.032.44,7.422,1.319,10.171.88,2.749,2.254,4.82,4.124,6.213,1.869,1.394,4.307,2.09,7.313,2.09,1.605,0,3.046-.203,4.324-.61.005-.002.009-.003.013-.005-1.102-.346-2.089-.833-2.95-1.475Z" style="fill:#447099;"/><path d="M55.779,14.46c2.547,4.729,3.821,10.501,3.821,17.319,0,5.132-.687,9.676-2.062,13.635-1.375,3.958-3.373,7.304-5.993,10.035-2.621,2.73-5.773,4.792-9.457,6.185-2.443.923-5.091,1.54-7.945,1.851,1.359.154,2.753.238,4.191.238,4.618,0,8.77-.697,12.453-2.089,3.684-1.393,6.836-3.455,9.457-6.185,2.62-2.731,4.618-6.076,5.993-10.035,1.375-3.959,2.062-8.503,2.062-13.635,0-6.818-1.274-12.591-3.821-17.319-2.548-4.729-6.048-8.321-10.501-10.776s-9.558-3.684-15.313-3.684c-1.552,0-3.05.077-4.494.232,4.068.462,7.77,1.612,11.107,3.452,4.453,2.456,7.953,6.047,10.501,10.776Z" style="fill:#447099;"/><path d="M124.451,8.082c4.269,5.388,6.406,13.287,6.406,23.697,0,6.964-1.009,12.82-3.024,17.567-2.016,4.748-4.803,8.33-8.357,10.748-2.451,1.667-5.153,2.759-8.108,3.278,1.387.231,2.899.351,4.546.351,4.618,0,8.705-1.21,12.261-3.629,3.555-2.419,6.341-6.001,8.357-10.748,2.015-4.747,3.024-10.603,3.024-17.567,0-10.41-2.136-18.309-6.406-23.697-4.27-5.388-9.869-8.082-16.797-8.082-1.585,0-3.056.131-4.432.372,4.997.907,9.174,3.475,12.53,7.71Z" style="fill:#447099;"/><path d="M90.225,55.861h-.88c.293,1.466.513,2.969.66,4.509.146,1.539.22,3.042.22,4.508v24.797h8.7v-24.797c0-.837-.031-1.69-.079-2.551-1.816-.709-3.388-1.591-4.717-2.645-1.503-1.191-2.804-2.465-3.904-3.821Z" style="fill:#447099;"/><path d="M90.225,9.126c1.1-1.649,2.437-3.169,4.014-4.563.645-.57,1.344-1.093,2.098-1.568l-.546-1.841h-8.699l2.364,7.972h.77Z" style="fill:#447099;"/><path d="M95.146,47.998c1.777,1.43,4.224,2.145,7.34,2.145,1.478,0,2.805-.237,3.979-.712.005-.002.009-.004.013-.006-.996-.349-1.879-.82-2.633-1.427-1.779-1.429-3.043-3.519-3.794-6.268-.752-2.748-1.127-6.103-1.127-10.061v-1.814c.073-3.703.504-6.763,1.292-9.182.788-2.419,2.043-4.234,3.766-5.443.681-.478,1.46-.858,2.331-1.147-.002,0-.004-.002-.007-.003-1.198-.443-2.545-.664-4.041-.664-2.933,0-5.26.605-6.982,1.815-1.723,1.21-2.978,3.024-3.766,5.443-.789,2.419-1.219,5.48-1.292,9.182v1.814c0,3.959.376,7.313,1.128,10.061.751,2.749,2.015,4.839,3.794,6.268Z" style="fill:#447099;"/><path d="M147.281,82.725c4.104,2.181,7.275,5.343,9.512,9.484,2.235,4.143,3.354,9.201,3.354,15.175v8.137h8.699v-8.137c0-5.974-1.118-11.033-3.354-15.175-2.236-4.141-5.407-7.303-9.512-9.484-4.105-2.181-8.999-3.271-14.68-3.271-1.477,0-2.906.08-4.29.236,3.845.429,7.269,1.44,10.272,3.035Z" style="fill:#447099;"/><path d="M124.765,126.655c2.657,2.694,6.35,4.041,11.079,4.041,1.831,0,3.591-.088,5.278-.264.003,0,.006,0,.009-.001-3.13-.512-5.687-1.769-7.668-3.777-2.658-2.694-4.078-6.405-4.261-11.134h-8.7c.183,4.729,1.603,8.44,4.261,11.134Z" style="fill:#447099;"/><path d="M137.197,92.082s-.009-.004-.014-.006c-1.302-.461-2.793-.691-4.473-.691-3.262,0-5.965,1.044-8.11,3.134-2.144,2.089-3.381,5.37-3.711,9.841h8.699c.33-4.471,1.567-7.752,3.712-9.841,1.139-1.111,2.442-1.917,3.897-2.437Z" style="fill:#447099;"/><path d="M156.682,138.833c-3.043,1.504-6.222,2.603-9.539,3.299-2.061.433-4.396.73-7.001.894,1.184.092,2.39.151,3.631.151,4.729,0,8.751-.349,12.068-1.045,3.317-.696,6.497-1.795,9.54-3.299v-12.976c-2.97,1.391-5.867,2.462-8.7,3.253v9.723Z" style="fill:#447099;"/><path d="M203.857,92.869c-5.132,0-8.632,1.742-10.501,5.224-1.87,3.483-2.804,8.504-2.804,15.064v28.921h8.7v-28.921c0-6.56.935-11.581,2.804-15.064,1.219-2.271,3.135-3.796,5.741-4.586-.003-.001-.006-.003-.008-.004-1.139-.423-2.449-.634-3.931-.634Z" style="fill:#447099;"/><path d="M189.781,88.471c1.32-2.126,2.96-3.849,4.921-5.169.377-.253.762-.494,1.155-.722h0l-.565-1.972h-8.7l2.254,7.862h.935Z" style="fill:#447099;"/><path d="M230.523,101.996v40.082h8.699v-40.082c0-7.88-1.998-13.608-5.993-17.182-3.996-3.574-9.274-5.36-15.835-5.36-1.438,0-2.848.109-4.234.305,4.534.648,8.325,2.332,11.37,5.056,3.995,3.574,5.993,9.302,5.993,17.182Z" style="fill:#447099;"/><path d="M52.863,203.238c-2.566-1.557-5.59-3.052-9.072-4.481-3.592-1.466-6.314-2.667-8.165-3.602-1.851-.935-3.098-1.787-3.739-2.556-.642-.77-.962-1.649-.962-2.64,0-1.356.623-2.364,1.87-3.024.445-.236.97-.427,1.57-.579-.002,0-.004-.001-.006-.001-1.555-.273-3.125-.409-4.71-.409-2.456,0-4.308.33-5.553.989-1.247.66-1.87,1.668-1.87,3.024,0,.99.32,1.87.962,2.64.641.77,1.888,1.622,3.739,2.556,1.851.935,4.572,2.136,8.165,3.602,3.482,1.429,6.506,2.923,9.072,4.481,2.565,1.558,4.545,3.483,5.938,5.773,1.393,2.291,2.089,5.251,2.089,8.88,0,4.179-.981,7.707-2.942,10.583-1.961,2.878-4.884,5.059-8.77,6.543-2.961,1.131-6.476,1.832-10.544,2.101,1.484.083,3.058.126,4.728.126,5.791,0,10.629-.742,14.515-2.227,3.885-1.484,6.808-3.665,8.77-6.543,1.961-2.876,2.942-6.405,2.942-10.583,0-3.629-.697-6.589-2.089-8.88-1.394-2.29-3.373-4.215-5.938-5.773Z" style="fill:#447099;"/><path d="M51.532,178.359l-3.851,9.21-.003.007c2.371.785,4.864,1.737,7.496,2.878l5.058-12.095c-3.665-1.686-7.23-2.914-10.694-3.684-3.464-.77-7.102-1.155-10.914-1.155-1.468,0-2.86.073-4.211.186,2.204.185,4.346.507,6.425.969,3.464.77,7.029,1.998,10.694,3.684Z" style="fill:#447099;"/><path d="M26.515,224.983c1.594,0,2.967-.116,4.119-.348.001,0,.003,0,.004-.001-1.716-.243-3.552-.611-5.513-1.108-3.831-.971-7.414-2.208-10.749-3.712v3.16c.675.192,1.358.376,2.049.552,3.83.971,7.193,1.457,10.089,1.457Z" style="fill:#447099;"/><path d="M112.326,235.155c3.684-1.393,6.836-3.455,9.457-6.185,2.62-2.73,4.618-6.076,5.993-10.034,1.375-3.959,2.062-8.503,2.062-13.635,0-6.818-1.274-12.591-3.821-17.319-2.548-4.729-6.048-8.32-10.501-10.776-4.454-2.455-9.558-3.684-15.313-3.684-1.552,0-3.05.077-4.494.232,4.067.462,7.77,1.613,11.107,3.452,4.453,2.456,7.953,6.047,10.501,10.776,2.547,4.728,3.822,10.501,3.822,17.319,0,5.132-.688,9.677-2.062,13.635-1.375,3.959-3.373,7.304-5.993,10.034-2.621,2.731-5.773,4.792-9.457,6.185-2.442.923-5.091,1.54-7.944,1.851,1.358.154,2.753.238,4.19.238,4.618,0,8.77-.697,12.454-2.089Z" style="fill:#447099;"/><path d="M92.78,221.684c-1.869-1.392-3.244-3.464-4.124-6.212-.88-2.75-1.319-6.139-1.319-10.172,0-6.084.998-10.648,2.996-13.69,1.278-1.947,3.062-3.263,5.338-3.964-.005-.002-.009-.003-.014-.005-1.292-.396-2.75-.594-4.374-.594-4.436,0-7.652,1.521-9.649,4.564-1.998,3.043-2.997,7.607-2.997,13.69,0,4.032.44,7.422,1.319,10.172.88,2.749,2.254,4.82,4.124,6.212,1.869,1.394,4.307,2.089,7.313,2.089,1.605,0,3.046-.203,4.324-.61.005-.002.009-.003.013-.005-1.102-.346-2.089-.833-2.95-1.475Z" style="fill:#447099;"/><path d="M153.797,220.529c1.575,2.237,4.087,3.354,7.532,3.354,1.777,0,3.354-.212,4.733-.635.008-.003.015-.006.024-.008-1.493-.549-2.697-1.444-3.589-2.711-1.577-2.235-2.365-5.553-2.365-9.951v-35.903h-8.699v35.903c0,4.398.788,7.716,2.364,9.951Z" style="fill:#447099;"/><path d="M175.405,228.282c-1.319,2.09-2.969,3.794-4.948,5.114-1.979,1.319-4.161,2.291-6.543,2.914-1.04.272-2.098.484-3.173.637,1.414.195,2.895.297,4.45.297,2.565,0,5.039-.312,7.422-.935,1.914-.501,3.692-1.237,5.346-2.187l-1.675-5.84h-.88Z" style="fill:#447099;"/><rect x="191.405" y="174.675" width="8.699" height="61.469" style="fill:#447099;"/><path d="M152.951,246.51c-.697-.146-1.604-.266-2.722-.357-1.119-.091-2.098-.137-2.942-.137-1.301,0-2.555.123-3.767.363.265.041.509.085.731.131l-1.244,15.457v.012c1.221-.188,2.463-.294,3.73-.294.733,0,1.603.046,2.612.137,1.008.092,1.787.229,2.337.412l1.265-15.725Z" style="fill:#447099;"/><path d="M140.65,261.822c-1.008-.091-1.879-.137-2.612-.137-2.163,0-4.261.274-6.295.824-2.035.55-3.858,1.439-5.471,2.667-1.613,1.228-2.886,2.841-3.821,4.838-.935,1.999-1.402,4.445-1.402,7.34v31.284h8.699v-31.284c0-2.895.468-5.341,1.402-7.34.935-1.997,2.208-3.61,3.821-4.838,1.613-1.227,3.436-2.117,5.471-2.667.648-.175,1.304-.312,1.965-.431-.009-.002-.015-.004-.024-.006-.473-.104-1.051-.187-1.733-.25Z" style="fill:#447099;"/><path d="M120.28,257.507c1.209-2.089,2.721-4.005,4.536-5.746.521-.499,1.062-.97,1.625-1.413l-.761-3.179h-8.699l2.474,10.337h.825Z" style="fill:#447099;"/><path d="M199.068,295.005v10.171c-2.566,1.613-5.251,2.777-8.055,3.491-1.681.429-3.631.728-5.847.9,1.261.109,2.559.172,3.908.172,4.288,0,7.835-.357,10.639-1.072,2.804-.714,5.489-1.877,8.055-3.491v-14.35c-2.566,1.686-5.205,2.996-7.918,3.931-.256.088-.519.168-.782.248Z" style="fill:#447099;"/><path d="M181.859,259.541c-2.933,0-5.37.687-7.312,2.062-1.943,1.375-3.391,3.436-4.344,6.185-.954,2.749-1.429,6.195-1.429,10.336,0,4.069.513,7.441,1.54,10.117,1.026,2.676,2.51,4.665,4.453,5.966,1.942,1.301,4.307,1.952,7.092,1.952,1.843,0,3.578-.131,5.205-.393.007-.001.013-.003.019-.004-1.334-.322-2.543-.835-3.618-1.555-1.943-1.301-3.428-3.29-4.453-5.966-1.027-2.675-1.54-6.048-1.54-10.117,0-4.142.476-7.587,1.429-10.336.953-2.749,2.4-4.811,4.344-6.185.993-.703,2.117-1.223,3.368-1.567-.002,0-.004,0-.006-.001-1.583-.329-3.166-.494-4.749-.494Z" style="fill:#447099;"/><path d="M200.992,250.194l-3.918,10.276-.003.008c.102.029.203.049.305.08,2.273.679,4.729,1.549,7.368,2.612l4.948-12.976c-2.309-1.135-5.013-2.117-8.11-2.941-3.097-.824-6.772-1.237-11.024-1.237-1.381,0-2.719.066-4.023.186,2.332.196,4.448.546,6.347,1.051,3.097.825,5.8,1.806,8.11,2.941Z" style="fill:#447099;"/><path d="M230.82,293.217c2.657,2.694,6.35,4.041,11.079,4.041,1.831,0,3.591-.088,5.278-.264.003,0,.006,0,.009-.001-3.13-.512-5.687-1.769-7.667-3.776-2.658-2.694-4.078-6.405-4.261-11.134h-8.699c.183,4.729,1.603,8.44,4.261,11.134Z" style="fill:#447099;"/><path d="M262.737,305.395c-3.043,1.504-6.222,2.603-9.539,3.3-2.061.432-4.395.729-7,.893,1.184.092,2.389.151,3.631.151,4.729,0,8.751-.348,12.069-1.044,3.317-.696,6.497-1.796,9.539-3.3v-12.975c-2.969,1.39-5.866,2.462-8.699,3.253v9.723Z" style="fill:#447099;"/><path d="M243.252,258.644s-.009-.004-.014-.006c-1.301-.461-2.792-.691-4.473-.691-3.263,0-5.966,1.045-8.11,3.134-2.144,2.089-3.382,5.37-3.712,9.842h8.7c.33-4.472,1.567-7.753,3.711-9.842,1.14-1.11,2.442-1.917,3.897-2.437Z" style="fill:#447099;"/><path d="M262.847,258.771c2.235,4.143,3.354,9.201,3.354,15.175v8.137h8.699v-8.137c0-5.974-1.119-11.033-3.354-15.175-2.236-4.141-5.407-7.302-9.512-9.484-4.106-2.181-8.999-3.271-14.68-3.271-1.477,0-2.907.08-4.291.236,3.845.428,7.269,1.44,10.272,3.035,4.104,2.182,7.275,5.343,9.512,9.484Z" style="fill:#447099;"/><path d="M36.618,13.628c-.358.038-.707.088-1.047.15-.105.019-.212.034-.315.056-.388.08-.76.179-1.122.291,1.094.337,2.069.815,2.924,1.435,1.87,1.357,3.234,3.382,4.096,6.076.861,2.694,1.292,6.075,1.292,10.144,0,4.032-.431,7.422-1.292,10.171-.862,2.749-2.218,4.82-4.068,6.213-.847.638-1.812,1.129-2.893,1.475.043.014.085.029.128.042.182.055.37.102.559.149.137.034.273.071.414.1.202.043.412.077.621.111.136.022.269.048.408.067.237.032.483.053.73.074.12.01.236.026.358.033.372.024.754.037,1.145.037,2.969,0,5.378-.696,7.23-2.09,1.851-1.392,3.207-3.464,4.069-6.213.861-2.749,1.292-6.139,1.292-10.171,0-4.069-.432-7.45-1.292-10.144-.862-2.694-2.227-4.719-4.096-6.076-1.869-1.356-4.307-2.035-7.313-2.035-.496,0-.971.026-1.436.064-.132.011-.261.025-.39.039Z" style="fill:#ee6331;"/><path d="M17.732,61.634c3.61,1.392,7.578,2.089,11.903,2.089,1.545,0,3.038-.078,4.478-.234-.066-.007-.129-.02-.195-.028-.61-.073-1.215-.157-1.81-.261-.013-.002-.026-.005-.039-.008-.581-.103-1.152-.225-1.718-.358-.173-.041-.344-.085-.516-.129-.423-.107-.842-.223-1.257-.347-.167-.05-.335-.099-.501-.151-.557-.177-1.108-.365-1.648-.574-3.611-1.393-6.745-3.455-9.402-6.185-2.658-2.731-4.71-6.076-6.158-10.035-1.448-3.959-2.172-8.503-2.172-13.635,0-6.818,1.21-12.591,3.629-17.319,2.419-4.729,5.864-8.321,10.336-10.776.503-.276,1.021-.532,1.546-.777.155-.072.312-.14.469-.21.394-.175.795-.342,1.202-.5.161-.063.322-.127.485-.187.554-.204,1.115-.397,1.691-.57.004-.001.009-.002.013-.004.572-.171,1.157-.322,1.75-.463.177-.042.357-.08.536-.119.448-.098.902-.188,1.362-.269.183-.032.364-.066.549-.095.624-.1,1.256-.189,1.902-.258-1.36-.154-2.762-.231-4.204-.231-6.195,0-11.528,1.228-16,3.684-4.473,2.456-7.918,6.047-10.336,10.776C1.21,19.189,0,24.961,0,31.779c0,5.132.723,9.676,2.172,13.635,1.448,3.958,3.5,7.304,6.158,10.035,2.657,2.73,5.791,4.792,9.402,6.185Z" style="fill:#ee6331;"/><path d="M35.571,13.778c.34-.062.688-.112,1.047-.15-.358.038-.707.089-1.047.15Z" style="fill:#ee6331;"/><path d="M28.057,1.44s.009-.002.013-.004c-.004.001-.009.002-.013.004Z" style="fill:#ee6331;"/><path d="M31.718.585c.183-.032.364-.066.549-.095-.185.03-.366.063-.549.095Z" style="fill:#ee6331;"/><path d="M37.409,50.216c-.122-.008-.238-.023-.358-.033.12.01.236.026.358.033Z" style="fill:#ee6331;"/><path d="M25.881,2.197c.161-.063.322-.127.485-.187-.163.06-.324.124-.485.187Z" style="fill:#ee6331;"/><path d="M33.918,63.461c-.61-.073-1.215-.157-1.81-.261.594.104,1.199.188,1.81.261Z" style="fill:#ee6331;"/><path d="M34.179,49.643c.046.014.095.024.141.038-.044-.013-.085-.029-.128-.042-.005.002-.009.003-.013.005Z" style="fill:#ee6331;"/><path d="M24.21,2.907c.155-.072.312-.14.469-.21-.157.07-.314.138-.469.21Z" style="fill:#ee6331;"/><path d="M35.256,13.834c-.391.081-.772.173-1.137.286.005.002.009.004.014.005.362-.111.735-.21,1.122-.291Z" style="fill:#ee6331;"/><path d="M38.444,13.525c-.496,0-.971.026-1.436.064.465-.038.94-.064,1.436-.064Z" style="fill:#ee6331;"/><path d="M36.322,50.109c-.139-.019-.272-.045-.408-.067.136.022.269.048.408.067Z" style="fill:#ee6331;"/><path d="M29.82.973c.177-.042.357-.08.536-.119-.179.039-.359.077-.536.119Z" style="fill:#ee6331;"/><path d="M28.079,62.208c-.557-.177-1.108-.365-1.648-.574.541.208,1.092.396,1.648.574Z" style="fill:#ee6331;"/><path d="M35.293,49.93c-.141-.03-.276-.066-.414-.1.137.034.273.071.414.1Z" style="fill:#ee6331;"/><path d="M29.837,62.706c-.423-.107-.842-.223-1.257-.347.414.124.833.24,1.257.347Z" style="fill:#ee6331;"/><path d="M32.07,63.192c-.581-.103-1.152-.225-1.718-.358.566.133,1.137.255,1.718.358Z" style="fill:#ee6331;"/><path d="M30.352,62.834c-.173-.041-.344-.085-.516-.129.172.043.342.088.516.129Z" style="fill:#3f2b1d;"/><path d="M34.879,49.83c-.189-.047-.377-.094-.559-.149.182.055.37.102.559.149Z" style="fill:#3f2b1d;"/><path d="M35.914,50.042c-.209-.034-.419-.068-.621-.111.202.043.412.077.621.111Z" style="fill:#3f2b1d;"/><path d="M37.051,50.183c-.246-.021-.492-.042-.73-.074.237.032.483.053.73.074Z" style="fill:#3f2b1d;"/><path d="M22.665,3.684c.503-.276,1.021-.532,1.546-.777-.525.245-1.043.501-1.546.777Z" style="fill:#3f2b1d;"/><path d="M32.109,63.2c-.013-.002-.026-.005-.039-.008.013.002.026.005.039.008Z" style="fill:#3f2b1d;"/><path d="M30.356.854c.448-.098.902-.188,1.362-.269-.46.081-.914.171-1.362.269Z" style="fill:#3f2b1d;"/><path d="M35.256,13.834c.103-.021.211-.037.315-.056-.105.019-.212.034-.315.056Z" style="fill:#3f2b1d;"/><path d="M36.618,13.628c.129-.014.258-.028.39-.039-.132.011-.261.025-.39.039Z" style="fill:#3f2b1d;"/><path d="M26.366,2.009c.554-.204,1.115-.397,1.691-.57-.576.173-1.137.366-1.691.57Z" style="fill:#3f2b1d;"/><path d="M28.07,1.436c.572-.171,1.157-.322,1.75-.463-.593.141-1.179.292-1.75.463Z" style="fill:#3f2b1d;"/><path d="M28.58,62.359c-.167-.05-.335-.099-.501-.151.166.053.334.101.501.151Z" style="fill:#3f2b1d;"/><path d="M38.554,50.253c-.392,0-.773-.013-1.145-.037.372.024.754.037,1.145.037Z" style="fill:#3f2b1d;"/><path d="M34.17.232s0,0-.001,0c-.646.069-1.277.159-1.902.258.625-.1,1.257-.189,1.903-.258Z" style="fill:#3f2b1d;"/><path d="M34.113,63.489c.01-.001.02-.003.031-.004-.075-.008-.151-.015-.226-.024.066.008.129.021.195.028Z" style="fill:#3f2b1d;"/><path d="M24.679,2.697c.394-.175.795-.342,1.202-.5-.407.158-.807.325-1.202.5Z" style="fill:#3f2b1d;"/><path d="M31.718.585c-.46.081-.914.171-1.362.269-.179.039-.359.077-.536.119-.593.141-1.179.292-1.75.463-.004.001-.009.002-.013.004-.576.173-1.137.366-1.691.57-.163.06-.324.125-.485.187-.407.158-.807.325-1.202.5-.157.07-.314.138-.469.21-.525.245-1.043.501-1.546.777-4.472,2.456-7.917,6.047-10.336,10.776-2.419,4.729-3.629,10.501-3.629,17.319,0,5.132.724,9.676,2.172,13.635,1.448,3.958,3.5,7.304,6.158,10.035,2.657,2.73,5.791,4.792,9.402,6.185.541.208,1.092.396,1.648.574.166.053.334.101.501.151.414.124.833.24,1.257.347.172.043.342.088.516.129.566.133,1.137.255,1.718.358.013.002.026.005.039.008.594.104,1.199.188,1.81.261.075.009.151.015.226.024,2.853-.311,5.502-.928,7.945-1.851,3.684-1.393,6.836-3.455,9.457-6.185,2.62-2.731,4.618-6.076,5.993-10.035,1.375-3.959,2.062-8.503,2.062-13.635,0-6.818-1.274-12.591-3.821-17.319-2.548-4.729-6.048-8.321-10.501-10.776-3.337-1.84-7.04-2.991-11.107-3.452-.646.069-1.278.158-1.903.258-.185.03-.366.063-.549.095ZM45.757,15.559c1.87,1.357,3.234,3.382,4.096,6.076.861,2.694,1.292,6.075,1.292,10.144,0,4.032-.432,7.422-1.292,10.171-.862,2.749-2.218,4.82-4.069,6.213-1.851,1.394-4.261,2.09-7.23,2.09-.392,0-.773-.013-1.145-.037-.122-.008-.238-.023-.358-.033-.246-.021-.492-.042-.73-.074-.139-.019-.272-.045-.408-.067-.209-.034-.419-.068-.621-.111-.141-.03-.276-.066-.414-.1-.189-.047-.377-.094-.559-.149-.046-.014-.096-.023-.141-.038-1.278.407-2.719.61-4.324.61-3.006,0-5.443-.696-7.313-2.09-1.869-1.392-3.244-3.464-4.124-6.213-.88-2.749-1.319-6.139-1.319-10.171,0-6.084.998-10.648,2.996-13.69,1.997-3.043,5.214-4.564,9.649-4.564,1.623,0,3.082.198,4.374.594.365-.113.746-.205,1.137-.286.103-.021.21-.037.315-.056.34-.061.688-.112,1.047-.15.129-.014.258-.028.39-.039.465-.038.94-.064,1.436-.064,3.005,0,5.443.679,7.313,2.035Z" style="fill:#414142;"/><path d="M110.953,17.979c1.87,3.043,2.804,7.569,2.804,13.58,0,3.996-.412,7.377-1.237,10.144-.825,2.768-2.062,4.866-3.712,6.295-.695.603-1.472,1.078-2.33,1.427.073.026.146.051.22.075.198.065.4.125.608.18.136.036.273.07.412.102.217.049.439.091.665.13.139.024.277.049.419.07.252.035.514.061.778.085.127.011.249.027.378.035.397.026.804.042,1.226.042,2.565,0,4.673-.715,6.323-2.145,1.65-1.429,2.887-3.527,3.712-6.295.825-2.766,1.237-6.148,1.237-10.144,0-6.011-.935-10.538-2.804-13.58-1.87-3.043-4.766-4.564-8.687-4.564-.41,0-.805.015-1.191.038-.123.007-.241.02-.361.03-.26.021-.517.047-.766.079-.133.017-.263.038-.392.058-.232.037-.46.079-.682.126-.121.026-.243.051-.362.08-.237.058-.466.123-.69.193-.069.021-.14.04-.208.063,1.938.718,3.485,2.017,4.64,3.897Z" style="fill:#ee6331;"/><path d="M109.816,63.055c-.062-.015-.121-.033-.183-.049-.47-.122-.928-.256-1.363-.409-2.126-.751-3.94-1.723-5.443-2.915-1.503-1.191-2.804-2.465-3.904-3.821h-.88c.293,1.466.513,2.969.66,4.509.063.66.112,1.313.148,1.96.236.092.476.181.72.267,2.125.75,4.674,1.127,7.642,1.127,1.431,0,2.811-.116,4.14-.348-.046-.008-.087-.02-.133-.028-.484-.084-.953-.18-1.405-.292Z" style="fill:#ee6331;"/><path d="M98.924,9.126c1.1-1.649,2.437-3.169,4.014-4.563,1.575-1.392,3.472-2.501,5.69-3.326.531-.198,1.086-.368,1.658-.519.191-.05.396-.085.591-.13.335-.077.664-.162,1.013-.223-1.352-.243-2.765-.365-4.237-.365-2.933,0-5.508.412-7.725,1.237-1.31.487-2.507,1.073-3.593,1.758l1.819,6.131h.77Z" style="fill:#ee6331;"/><rect x="73.456" y="1.154" width="8.7" height="88.521" style="fill:#ee6331;"/><path d="M109.414,13.483c.121-.01.238-.023.361-.03-.123.007-.241.02-.361.03Z" style="fill:#ee6331;"/><path d="M107.212,13.826c.118-.029.24-.054.362-.08-.121.026-.243.051-.362.08Z" style="fill:#ee6331;"/><path d="M106.521,14.019c-.07.022-.146.037-.215.06.002,0,.004.002.007.003.068-.023.139-.042.208-.063Z" style="fill:#ee6331;"/><path d="M110.878.588c-.196.045-.4.08-.591.13.191-.05.396-.085.591-.13Z" style="fill:#ee6331;"/><path d="M106.465,49.431c.075.026.158.044.234.069-.074-.024-.148-.049-.22-.075-.005.002-.009.004-.013.006Z" style="fill:#ee6331;"/><path d="M107.719,49.781c-.14-.032-.276-.066-.412-.102.136.036.273.07.412.102Z" style="fill:#ee6331;"/><path d="M108.255,13.621c.13-.02.259-.041.392-.058-.133.017-.263.038-.392.058Z" style="fill:#ee6331;"/><path d="M108.804,49.981c-.143-.02-.28-.046-.419-.07.139.024.277.049.419.07Z" style="fill:#ee6331;"/><path d="M109.816,63.055c.452.112.921.208,1.405.292-.483-.084-.953-.18-1.405-.292Z" style="fill:#ee6331;"/><path d="M108.271,62.597c.435.154.892.287,1.363.409-.47-.122-.928-.256-1.363-.409Z" style="fill:#ee6331;"/><path d="M109.959,50.101c-.129-.008-.252-.024-.378-.035.126.011.249.027.378.035Z" style="fill:#ee6331;"/><path d="M110.287.718c-.572.15-1.127.321-1.658.519.531-.198,1.086-.368,1.658-.519Z" style="fill:#3f2b1d;"/><path d="M109.581,50.066c-.264-.024-.525-.05-.778-.085.252.035.514.061.778.085Z" style="fill:#3f2b1d;"/><path d="M111.354,63.375s.009-.002.014-.003c-.049-.008-.098-.016-.147-.025.046.008.087.02.133.028Z" style="fill:#3f2b1d;"/><polygon points="96.336 2.995 96.336 2.995 98.155 9.126 96.336 2.995" style="fill:#3f2b1d;"/><path d="M111.185,50.143c-.422,0-.829-.016-1.226-.042.397.026.804.042,1.226.042Z" style="fill:#3f2b1d;"/><path d="M109.775,13.453c.386-.024.781-.038,1.191-.038-.41,0-.805.015-1.191.038Z" style="fill:#3f2b1d;"/><path d="M108.384,49.911c-.226-.039-.449-.081-.665-.13.217.049.439.091.665.13Z" style="fill:#3f2b1d;"/><path d="M108.647,13.563c.249-.033.506-.058.766-.079-.26.021-.517.047-.766.079Z" style="fill:#3f2b1d;"/><path d="M109.633,63.006c.061.016.121.033.183.049-.062-.015-.121-.033-.183-.049Z" style="fill:#3f2b1d;"/><path d="M107.307,49.679c-.207-.055-.41-.115-.608-.18.198.065.4.125.608.18Z" style="fill:#3f2b1d;"/><path d="M107.573,13.747c.222-.047.449-.089.682-.126-.232.037-.46.079-.682.126Z" style="fill:#3f2b1d;"/><path d="M106.521,14.019c.225-.07.453-.135.69-.193-.237.058-.466.123-.69.193Z" style="fill:#3f2b1d;"/><path d="M111.921.372c-.01-.002-.02-.005-.03-.007-.349.061-.677.146-1.013.223.342-.078.687-.154,1.043-.216Z" style="fill:#3f2b1d;"/><path d="M98.846,62.326s.004.002.007.003c-.036-.646-.085-1.3-.148-1.96.063.66.105,1.31.141,1.957Z" style="fill:#3f2b1d;"/><path d="M90.225,89.675v-24.797c0-1.466-.073-2.969-.22-4.508-.147-1.54-.367-3.043-.66-4.509h.88c1.1,1.356,2.401,2.63,3.904,3.821,1.329,1.054,2.901,1.935,4.717,2.645-.036-.647-.079-1.297-.141-1.957-.147-1.54-.367-3.043-.66-4.509h.88c1.1,1.356,2.4,2.63,3.904,3.821,1.502,1.192,3.317,2.164,5.443,2.915.435.153.892.287,1.363.409.061.016.121.033.183.049.452.112.921.208,1.405.292.049.008.098.017.147.025,2.955-.518,5.657-1.611,8.108-3.278,3.555-2.419,6.341-6.001,8.357-10.748,2.015-4.747,3.024-10.603,3.024-17.567,0-10.41-2.136-18.309-6.406-23.697-3.356-4.235-7.533-6.804-12.53-7.71-.356.062-.701.138-1.043.216-.196.045-.4.08-.591.13-.572.15-1.127.321-1.658.519-2.218.825-4.115,1.934-5.69,3.326-1.577,1.394-2.914,2.914-4.014,4.563h-.77l-1.819-6.131c-.753.475-1.452.998-2.098,1.568-1.576,1.394-2.914,2.914-4.014,4.563h-.77l-2.364-7.972h-4.936v88.521h8.07ZM90.225,29.855c.073-3.703.504-6.763,1.292-9.182.788-2.419,2.043-4.234,3.766-5.443,1.722-1.21,4.05-1.815,6.982-1.815,1.496,0,2.843.222,4.041.664.069-.023.145-.038.215-.06.225-.07.453-.135.69-.193.118-.029.24-.054.362-.08.222-.047.449-.089.682-.126.13-.02.259-.041.392-.058.249-.033.506-.058.766-.079.121-.01.238-.023.361-.03.386-.024.781-.038,1.191-.038,3.921,0,6.818,1.522,8.687,4.564,1.869,3.043,2.804,7.569,2.804,13.58,0,3.996-.412,7.377-1.237,10.144-.824,2.768-2.062,4.866-3.712,6.295-1.649,1.43-3.757,2.145-6.323,2.145-.422,0-.829-.016-1.226-.042-.129-.008-.252-.024-.378-.035-.264-.024-.525-.05-.778-.085-.143-.02-.28-.046-.419-.07-.226-.039-.449-.081-.665-.13-.14-.032-.276-.066-.412-.102-.207-.055-.41-.115-.608-.18-.076-.025-.159-.043-.234-.069-1.174.475-2.501.712-3.979.712-3.116,0-5.563-.715-7.34-2.145-1.779-1.429-3.043-3.519-3.794-6.268-.752-2.748-1.128-6.103-1.128-10.061v-1.814Z" style="fill:#414142;"/><path d="M147.925,93.089c-1.705-1.136-3.876-1.704-6.516-1.704-.396,0-.783.017-1.162.048-.126.01-.247.031-.371.045-.25.027-.499.054-.742.095-.145.025-.284.06-.427.089-.214.044-.429.087-.637.143-.148.039-.291.088-.436.133-.147.046-.294.093-.438.145.737.262,1.414.597,2.029,1.007,1.704,1.136,2.987,2.676,3.848,4.618.861,1.944,1.31,4.161,1.347,6.653h8.699c-.037-2.492-.486-4.709-1.347-6.653-.862-1.943-2.144-3.482-3.849-4.618Z" style="fill:#ee6331;"/><path d="M138.916,142.918c-.455-.049-.905-.105-1.351-.168-.211-.03-.423-.057-.631-.09-.568-.089-1.129-.189-1.682-.302-.071-.014-.143-.025-.214-.04-.62-.13-1.229-.277-1.831-.436-.18-.048-.357-.101-.536-.152-.426-.12-.848-.246-1.264-.381-.203-.066-.404-.134-.605-.203-.406-.14-.806-.289-1.203-.443-.176-.069-.355-.135-.529-.207-.559-.23-1.112-.47-1.654-.729-4.747-2.272-8.467-5.736-11.161-10.392-2.694-4.654-4.041-10.52-4.041-17.594,0-7.184,1.218-13.169,3.656-17.952,2.437-4.783,5.837-8.375,10.199-10.776.49-.27.992-.519,1.501-.759.149-.07.3-.136.45-.204.385-.173.774-.337,1.169-.492.151-.059.301-.121.453-.178.532-.199,1.07-.387,1.619-.556.037-.011.075-.02.112-.031.515-.156,1.04-.296,1.572-.426.17-.041.342-.079.513-.118.43-.097.864-.185,1.304-.265.165-.03.329-.062.496-.09.573-.095,1.152-.18,1.742-.247-1.41-.157-2.876-.235-4.399-.235-5.792,0-10.869,1.201-15.23,3.601-4.362,2.401-7.762,5.993-10.199,10.776-2.438,4.783-3.656,10.768-3.656,17.952,0,7.074,1.347,12.939,4.041,17.594,2.694,4.656,6.414,8.119,11.161,10.392,4.746,2.273,10.199,3.409,16.357,3.409,1.759,0,3.42-.048,4.984-.145-.152-.012-.3-.031-.451-.045-.232-.021-.462-.045-.691-.069Z" style="fill:#ee6331;"/><path d="M142.258,130.568c.183.019.357.049.543.063.565.043,1.145.065,1.743.065,3.922,0,7.514-.403,10.777-1.21.451-.111.908-.249,1.362-.376v-3.253c-3.445,1.614-6.799,2.823-10.061,3.629-1.736.429-3.566.744-5.489.945.009.002.017.004.026.005.356.058.729.093,1.1.131Z" style="fill:#ee6331;"/><path d="M141.158,130.437c-.009-.002-.017-.004-.026-.005-.003,0-.006,0-.009.001.011.002.024.002.035.004Z" style="fill:#ee6331;"/><path d="M138.071,91.804c.208-.055.423-.098.637-.143-.214.044-.429.087-.637.143Z" style="fill:#ee6331;"/><path d="M133.458,80.291c-.171.039-.343.076-.513.118.17-.041.342-.079.513-.118Z" style="fill:#ee6331;"/><path d="M139.135,91.572c.242-.041.492-.068.742-.095-.25.027-.499.054-.742.095Z" style="fill:#ee6331;"/><path d="M131.373,80.835c-.037.011-.075.02-.112.031.037-.011.075-.02.112-.031Z" style="fill:#ee6331;"/><path d="M142.801,130.631c-.186-.014-.36-.044-.543-.063.183.019.357.049.543.063Z" style="fill:#ee6331;"/><path d="M130.803,141.147c.201.069.402.137.605.203-.203-.066-.404-.134-.605-.203Z" style="fill:#ee6331;"/><path d="M129.642,81.422c-.152.057-.302.118-.453.178.151-.059.301-.121.453-.178Z" style="fill:#ee6331;"/><path d="M129.07,140.497c.175.072.353.138.529.207-.176-.069-.355-.135-.529-.207Z" style="fill:#ee6331;"/><path d="M128.021,82.092c-.15.068-.302.134-.45.204.149-.07.3-.136.45-.204Z" style="fill:#ee6331;"/><path d="M135.258,79.936c-.167.028-.331.06-.496.09.165-.03.329-.062.496-.09Z" style="fill:#ee6331;"/><path d="M137.636,91.937c-.151.047-.305.086-.452.139.005.002.009.004.014.006.144-.052.291-.099.438-.145Z" style="fill:#ee6331;"/><path d="M138.916,142.918c.23.024.46.048.691.069-.232-.021-.462-.045-.691-.069Z" style="fill:#ee6331;"/><path d="M132.672,141.731c.179.05.355.104.536.152-.18-.048-.357-.101-.536-.152Z" style="fill:#ee6331;"/><path d="M140.247,91.432c.379-.031.766-.048,1.162-.048-.396,0-.783.017-1.162.048Z" style="fill:#ee6331;"/><path d="M135.038,142.319c.07.015.143.026.214.04-.071-.014-.143-.025-.214-.04Z" style="fill:#ee6331;"/><path d="M156.682,129.128v-.017c-.454.127-.911.265-1.362.376.452-.112.906-.231,1.362-.359Z" style="fill:#ee6331;"/><path d="M136.934,142.661c.209.033.421.06.631.09-.211-.03-.422-.057-.631-.09Z" style="fill:#ee6331;"/><path d="M137.009,79.69s-.006,0-.009-.001c-.59.067-1.169.152-1.742.247.576-.096,1.159-.179,1.752-.246Z" style="fill:#3f2b1d;"/><path d="M142.258,130.568c-.371-.038-.744-.073-1.1-.131.356.058.729.093,1.1.131Z" style="fill:#3f2b1d;"/><path d="M144.543,130.697c-.598,0-1.178-.022-1.743-.065.565.043,1.145.065,1.743.065Z" style="fill:#3f2b1d;"/><path d="M134.762,80.026c-.44.08-.874.168-1.304.265.43-.097.864-.185,1.304-.265Z" style="fill:#3f2b1d;"/><path d="M132.945,80.409c-.531.129-1.056.27-1.572.426.515-.156,1.04-.296,1.572-.426Z" style="fill:#3f2b1d;"/><path d="M131.262,80.866c-.55.169-1.088.357-1.619.556.532-.199,1.07-.387,1.619-.556Z" style="fill:#3f2b1d;"/><path d="M135.252,142.359c.553.112,1.114.213,1.682.302-.568-.089-1.129-.189-1.682-.302Z" style="fill:#3f2b1d;"/><path d="M138.708,91.661c.142-.03.282-.065.427-.089-.145.025-.284.06-.427.089Z" style="fill:#3f2b1d;"/><path d="M131.407,141.35c.416.135.839.261,1.264.381-.426-.12-.848-.246-1.264-.381Z" style="fill:#3f2b1d;"/><path d="M139.876,91.477c.124-.014.245-.034.371-.045-.126.01-.247.031-.371.045Z" style="fill:#3f2b1d;"/><path d="M133.207,141.882c.602.159,1.211.306,1.831.436-.62-.13-1.229-.277-1.831-.436Z" style="fill:#3f2b1d;"/><path d="M137.565,142.75c.446.063.896.119,1.351.168-.455-.049-.905-.105-1.351-.168Z" style="fill:#3f2b1d;"/><path d="M129.189,81.6c-.395.156-.784.32-1.169.492.385-.173.774-.337,1.169-.492Z" style="fill:#3f2b1d;"/><path d="M127.57,82.296c-.508.239-1.01.489-1.501.759.49-.27.992-.519,1.501-.759Z" style="fill:#3f2b1d;"/><path d="M127.417,139.769c.541.259,1.094.499,1.654.729-.559-.23-1.112-.47-1.654-.729Z" style="fill:#3f2b1d;"/><path d="M129.599,140.704c.397.155.797.303,1.203.443-.406-.14-.806-.289-1.203-.443Z" style="fill:#3f2b1d;"/><path d="M140.058,143.033c.029-.002.056-.005.084-.006-.178-.014-.358-.023-.535-.039.151.014.299.033.451.045Z" style="fill:#3f2b1d;"/><path d="M137.636,91.937c.145-.045.288-.094.436-.133-.148.039-.291.088-.436.133Z" style="fill:#3f2b1d;"/><path d="M156.792,92.209c-2.236-4.141-5.407-7.303-9.512-9.484-3.003-1.594-6.427-2.606-10.272-3.035-.593.067-1.176.15-1.752.246-.167.028-.331.06-.496.09-.44.08-.874.168-1.304.265-.171.039-.343.076-.513.118-.531.129-1.056.27-1.572.426-.037.011-.075.02-.112.031-.55.169-1.088.357-1.619.556-.152.057-.302.118-.453.178-.395.156-.784.32-1.169.492-.15.068-.302.134-.45.204-.508.239-1.01.489-1.501.759-4.362,2.401-7.762,5.993-10.199,10.776-2.438,4.783-3.656,10.768-3.656,17.952,0,7.074,1.347,12.939,4.041,17.594,2.694,4.656,6.414,8.119,11.161,10.392.541.259,1.094.499,1.654.729.175.072.353.138.529.207.397.155.797.303,1.203.443.201.069.402.137.605.203.416.135.839.261,1.264.381.179.05.355.104.536.152.602.159,1.211.307,1.831.436.07.015.143.026.214.04.553.112,1.114.213,1.682.302.209.033.421.06.631.09.446.063.896.119,1.351.168.23.024.46.048.691.069.176.016.357.025.535.039,2.605-.164,4.94-.461,7.001-.894,3.317-.696,6.497-1.795,9.539-3.299v-9.705c-.456.127-.91.247-1.362.359-3.263.807-6.855,1.21-10.777,1.21-.598,0-1.178-.022-1.743-.065-.186-.014-.36-.044-.543-.063-.371-.038-.744-.073-1.1-.131-.011-.002-.024-.002-.035-.004-1.688.176-3.447.264-5.278.264-4.729,0-8.422-1.347-11.079-4.041-2.658-2.694-4.078-6.405-4.261-11.134h39.642v-8.137c0-5.974-1.119-11.033-3.354-15.175ZM144.421,104.36h-23.532c.33-4.471,1.567-7.752,3.711-9.841,2.144-2.09,4.847-3.134,8.11-3.134,1.68,0,3.171.231,4.473.691.147-.053.302-.092.452-.139.145-.045.288-.094.436-.133.208-.055.423-.098.637-.143.142-.03.282-.065.427-.089.242-.041.492-.068.742-.095.124-.014.245-.034.371-.045.379-.031.766-.048,1.162-.048,2.64,0,4.811.568,6.516,1.704,1.705,1.136,2.987,2.676,3.849,4.618.861,1.944,1.31,4.161,1.347,6.653h-8.699Z" style="fill:#414142;"/><path d="M220.061,96.223c-1.594-2.236-4.096-3.354-7.505-3.354-.399,0-.785.014-1.165.036-.107.006-.212.014-.317.021-.298.021-.59.05-.875.085-.082.01-.165.018-.246.029-.352.048-.695.107-1.027.176-.07.015-.138.033-.207.048-.267.06-.527.127-.78.2-.048.014-.096.028-.143.043,1.477.55,2.666,1.455,3.566,2.717,1.594,2.236,2.392,5.552,2.392,9.952v35.903h8.7v-35.903c0-4.399-.798-7.716-2.392-9.952Z" style="fill:#ee6331;"/><path d="M198.481,88.471c1.319-2.126,2.959-3.849,4.921-5.169,1.96-1.319,4.142-2.29,6.543-2.914.564-.146,1.134-.272,1.707-.384.188-.037.379-.064.569-.097.302-.053.602-.112.906-.155-1.405-.199-2.882-.298-4.43-.298-2.566,0-5.05.312-7.45.935-1.94.504-3.736,1.234-5.388,2.192l1.689,5.891h.935Z" style="fill:#ee6331;"/><rect x="173.782" y="80.608" width="8.7" height="61.469" style="fill:#ee6331;"/><path d="M212.22,79.907c-.189.033-.38.06-.569.097.188-.037.379-.064.569-.097Z" style="fill:#ee6331;"/><path d="M208.72,93.264c.069-.016.137-.033.207-.048-.07.015-.138.033-.207.048Z" style="fill:#ee6331;"/><path d="M209.954,93.039c.081-.011.164-.019.246-.029-.082.01-.165.018-.246.029Z" style="fill:#ee6331;"/><path d="M211.075,92.926c.105-.008.21-.016.317-.021-.107.006-.212.014-.317.021Z" style="fill:#ee6331;"/><polygon points="197.546 88.471 195.857 82.58 195.857 82.58 197.546 88.471" style="fill:#ee6331;"/><path d="M207.787,93.503s.006.003.008.004c.048-.014.095-.029.143-.043-.049.014-.103.024-.152.039Z" style="fill:#ee6331;"/><path d="M207.939,93.464c.254-.074.514-.14.78-.2-.267.06-.527.127-.78.2Z" style="fill:#3f2b1d;"/><path d="M208.927,93.215c.333-.069.675-.128,1.027-.176-.352.048-.695.107-1.027.176Z" style="fill:#3f2b1d;"/><path d="M211.392,92.904c.379-.021.765-.036,1.165-.036-.399,0-.785.014-1.165.036Z" style="fill:#3f2b1d;"/><path d="M210.2,93.01c.285-.035.577-.063.875-.085-.298.021-.59.05-.875.085Z" style="fill:#3f2b1d;"/><path d="M211.651,80.004c-.573.112-1.143.238-1.707.384.564-.146,1.134-.272,1.707-.384Z" style="fill:#3f2b1d;"/><path d="M213.16,79.758c-.012-.002-.023-.004-.035-.006-.304.043-.604.102-.906.155.312-.055.626-.104.941-.149Z" style="fill:#3f2b1d;"/><path d="M190.551,142.078v-28.921c0-6.56.935-11.581,2.804-15.064,1.87-3.482,5.369-5.224,10.501-5.224,1.482,0,2.792.211,3.931.634.049-.015.102-.025.152-.039.254-.074.514-.14.78-.2.07-.016.137-.033.207-.048.333-.069.675-.128,1.027-.176.081-.011.164-.019.246-.029.285-.035.577-.063.875-.085.105-.008.21-.016.317-.021.379-.021.765-.036,1.165-.036,3.409,0,5.911,1.119,7.505,3.354,1.594,2.236,2.392,5.552,2.392,9.952v35.903h8.07v-40.082c0-7.88-1.998-13.608-5.993-17.182-3.045-2.723-6.835-4.408-11.37-5.056-.315.045-.628.094-.941.149-.189.033-.38.06-.569.097-.573.112-1.143.238-1.707.384-2.401.624-4.583,1.595-6.543,2.914-1.962,1.32-3.601,3.043-4.921,5.169h-.935l-1.689-5.891c-.393.228-.778.468-1.155.722-1.962,1.32-3.601,3.043-4.921,5.169h-.935l-2.254-7.862h-4.111v61.469h8.07Z" style="fill:#414142;"/><path d="M31.804,224.782c.22.024.432.042.648.062.177.016.357.036.532.05.24.018.472.029.707.042.143.008.289.02.43.025.372.015.737.022,1.094.022,3.262,0,5.598-.486,7.01-1.457,1.41-.971,2.117-2.245,2.117-3.821,0-1.026-.284-1.953-.852-2.777-.569-.825-1.787-1.759-3.656-2.804-1.87-1.045-4.803-2.41-8.797-4.096-3.848-1.613-7.01-3.244-9.484-4.893-2.474-1.649-4.308-3.601-5.498-5.856-1.192-2.254-1.787-5.122-1.787-8.605,0-5.681,2.208-9.96,6.625-12.838.504-.329,1.034-.633,1.577-.924.17-.091.347-.174.52-.262.389-.196.787-.384,1.195-.561.203-.088.409-.174.616-.258.42-.169.853-.327,1.292-.478.191-.065.378-.135.573-.197.636-.202,1.286-.39,1.961-.554.031-.008.064-.013.096-.021.646-.155,1.313-.291,1.994-.412.225-.04.457-.073.686-.109.508-.081,1.024-.153,1.551-.215.261-.031.524-.06.789-.086.193-.019.377-.046.572-.063-1.437-.118-2.901-.176-4.391-.176-7.404,0-13.315,1.438-17.732,4.316-4.417,2.878-6.625,7.157-6.625,12.838,0,3.483.596,6.351,1.787,8.605,1.191,2.254,3.024,4.206,5.498,5.856,2.474,1.649,5.635,3.281,9.484,4.893,3.995,1.686,6.928,3.051,8.797,4.096,1.869,1.045,3.087,1.979,3.656,2.804.568.824.852,1.751.852,2.777,0,1.576-.706,2.85-2.116,3.821-.721.496-1.684.865-2.887,1.108.199.028.393.051.589.076.192.024.387.052.576.073Z" style="fill:#ee6331;"/><path d="M38.348,185.946c-.358,0-.7.009-1.032.023-.102.004-.2.011-.3.017-.231.013-.457.03-.675.05-.102.01-.203.019-.302.03-.23.025-.451.056-.665.09-.065.01-.135.019-.199.03-.271.047-.529.101-.774.162-.013.003-.024.007-.036.01,1.177.207,2.345.491,3.504.854,2.694.844,5.562,1.924,8.605,3.244l1.204-2.878c-.37-.122-.745-.252-1.109-.366-2.694-.843-5.435-1.265-8.22-1.265Z" style="fill:#ee6331;"/><path d="M28.429,237.015c-.179-.014-.354-.03-.53-.046-.336-.03-.667-.061-.992-.096-.175-.019-.35-.037-.522-.057-.333-.039-.658-.08-.979-.124-.144-.02-.291-.038-.433-.059-.455-.067-.9-.137-1.33-.214-3.061-.551-6.149-1.466-9.264-2.75v-10.695c-3.066-.875-5.966-1.928-8.7-3.16v13.855c3.115,1.284,6.203,2.199,9.265,2.75,3.06.55,6.735.824,11.024.824,1.374,0,2.694-.042,3.961-.125-.108-.006-.209-.015-.316-.022-.4-.024-.795-.051-1.181-.082Z" style="fill:#ee6331;"/><path d="M22.989,176.65c-.173.087-.35.171-.52.262.17-.091.347-.174.52-.262Z" style="fill:#ee6331;"/><path d="M24.8,175.831c-.208.084-.413.17-.616.258.203-.088.408-.174.616-.258Z" style="fill:#ee6331;"/><path d="M28.722,174.581c-.031.007-.065.013-.096.021.031-.008.064-.013.096-.021Z" style="fill:#ee6331;"/><path d="M26.666,175.156c-.195.062-.382.131-.573.197.191-.065.378-.135.573-.197Z" style="fill:#ee6331;"/><path d="M35.214,224.983c-.358,0-.723-.008-1.094-.022.372.015.737.022,1.094.022Z" style="fill:#ee6331;"/><path d="M32.452,224.844c-.215-.02-.428-.037-.648-.062.22.024.432.042.648.062Z" style="fill:#ee6331;"/><path d="M33.69,224.935c-.234-.013-.467-.023-.707-.042.24.018.472.029.707.042Z" style="fill:#ee6331;"/><path d="M36.038,186.065c.099-.011.201-.021.302-.03-.102.01-.203.019-.302.03Z" style="fill:#ee6331;"/><path d="M31.227,224.71c-.196-.025-.39-.048-.589-.076-.001,0-.003,0-.004.001.201.029.396.05.593.075Z" style="fill:#ee6331;"/><path d="M35.175,186.185c.064-.011.133-.02.199-.03-.065.01-.135.019-.199.03Z" style="fill:#ee6331;"/><path d="M31.402,174.06c-.229.036-.461.069-.686.109.225-.04.457-.073.686-.109Z" style="fill:#ee6331;"/><path d="M34.359,186.355s.004.001.006.001c.013-.003.024-.007.036-.01-.013.003-.029.005-.042.009Z" style="fill:#ee6331;"/><path d="M37.016,185.986c.1-.006.198-.012.3-.017-.102.004-.2.011-.3.017Z" style="fill:#ee6331;"/><path d="M46.568,187.211c.364.114.739.243,1.109.366l.003-.007c-.374-.124-.745-.243-1.112-.358Z" style="fill:#ee6331;"/><path d="M33.742,173.759c-.266.026-.528.055-.789.086.261-.031.524-.06.789-.086Z" style="fill:#ee6331;"/><path d="M28.429,237.015c.386.031.781.057,1.181.082-.4-.024-.795-.051-1.181-.082Z" style="fill:#ee6331;"/><path d="M25.404,236.693c.321.044.647.086.979.124-.333-.039-.658-.08-.979-.124Z" style="fill:#ee6331;"/><path d="M23.641,236.42c.43.077.876.148,1.33.214-.455-.067-.9-.137-1.33-.214Z" style="fill:#ee6331;"/><path d="M26.906,236.874c.325.034.656.066.992.096-.336-.03-.667-.061-.992-.096Z" style="fill:#ee6331;"/><path d="M32.953,173.845c-.527.062-1.043.135-1.551.215.508-.081,1.024-.153,1.551-.215Z" style="fill:#3f2b1d;"/><path d="M30.717,174.17c-.681.121-1.348.256-1.994.412.646-.155,1.313-.291,1.994-.412Z" style="fill:#3f2b1d;"/><path d="M34.413,173.706c-.033-.003-.065-.007-.098-.01-.195.017-.38.043-.572.063.219-.022.448-.034.67-.053Z" style="fill:#3f2b1d;"/><path d="M27.898,236.97c.176.015.351.031.53.046-.179-.014-.354-.03-.53-.046Z" style="fill:#3f2b1d;"/><path d="M34.401,186.346c.245-.061.503-.115.774-.162-.271.047-.529.101-.774.162Z" style="fill:#3f2b1d;"/><path d="M35.374,186.155c.214-.034.435-.064.665-.09-.23.025-.451.056-.665.09Z" style="fill:#3f2b1d;"/><path d="M37.316,185.969c.332-.014.674-.023,1.032-.023-.358,0-.7.009-1.032.023Z" style="fill:#3f2b1d;"/><path d="M36.341,186.035c.218-.02.444-.037.675-.05-.231.013-.457.03-.675.05Z" style="fill:#3f2b1d;"/><path d="M29.926,237.118s.007,0,.011,0c-.111-.006-.217-.014-.327-.021.107.006.208.016.316.022Z" style="fill:#3f2b1d;"/><path d="M34.12,224.961c-.141-.006-.287-.017-.43-.025.143.008.289.02.43.025Z" style="fill:#3f2b1d;"/><path d="M32.983,224.894c-.174-.013-.355-.033-.532-.05.177.016.357.036.532.05Z" style="fill:#3f2b1d;"/><path d="M22.469,176.912c-.543.291-1.073.596-1.577.924.504-.329,1.034-.633,1.577-.924Z" style="fill:#3f2b1d;"/><path d="M24.971,236.634c.142.021.289.039.433.059-.144-.02-.291-.038-.433-.059Z" style="fill:#3f2b1d;"/><path d="M31.804,224.782c-.189-.021-.384-.048-.576-.073.192.024.387.052.576.073Z" style="fill:#3f2b1d;"/><path d="M26.093,175.353c-.44.151-.872.309-1.292.478.421-.169.853-.327,1.292-.478Z" style="fill:#3f2b1d;"/><path d="M24.184,176.089c-.409.177-.806.366-1.195.561.389-.196.787-.384,1.195-.561Z" style="fill:#3f2b1d;"/><path d="M28.627,174.602c-.675.164-1.325.352-1.961.554.636-.202,1.286-.39,1.961-.554Z" style="fill:#3f2b1d;"/><path d="M26.384,236.817c.172.02.347.039.522.057-.175-.019-.35-.037-.522-.057Z" style="fill:#3f2b1d;"/><path d="M49.25,228.474c1.961-2.876,2.942-6.405,2.942-10.583,0-3.629-.697-6.589-2.089-8.88-1.393-2.29-3.373-4.215-5.938-5.773-2.566-1.557-5.59-3.052-9.072-4.481-3.592-1.466-6.314-2.667-8.165-3.602-1.851-.935-3.098-1.787-3.739-2.556-.642-.77-.962-1.649-.962-2.64,0-1.356.623-2.364,1.87-3.024,1.245-.66,3.097-.989,5.553-.989,1.584,0,3.154.137,4.71.409.013-.003.029-.005.042-.009.245-.061.503-.115.774-.162.064-.011.133-.02.199-.03.214-.034.435-.064.665-.09.099-.011.201-.021.302-.03.218-.02.444-.037.675-.05.1-.006.198-.012.3-.017.332-.014.674-.023,1.032-.023,2.785,0,5.526.422,8.22,1.265.368.115.738.234,1.112.358l3.851-9.21c-3.665-1.686-7.23-2.914-10.694-3.684-2.079-.462-4.221-.784-6.425-.969-.222.019-.451.031-.67.053-.266.026-.528.055-.789.086-.527.062-1.043.135-1.551.215-.229.036-.461.069-.686.109-.681.121-1.348.256-1.994.412-.031.007-.065.013-.096.021-.675.164-1.325.352-1.961.554-.195.062-.382.131-.573.197-.44.151-.872.309-1.292.478-.208.084-.413.17-.616.258-.409.177-.806.366-1.195.561-.173.087-.35.171-.52.262-.543.291-1.073.596-1.577.924-4.418,2.878-6.625,7.157-6.625,12.838,0,3.483.595,6.351,1.787,8.605,1.191,2.254,3.024,4.206,5.498,5.856,2.474,1.649,5.636,3.281,9.484,4.893,3.995,1.686,6.928,3.051,8.797,4.096,1.869,1.045,3.087,1.979,3.656,2.804.568.824.852,1.751.852,2.777,0,1.576-.706,2.85-2.117,3.821-1.412.971-3.748,1.457-7.01,1.457-.358,0-.722-.008-1.094-.022-.141-.006-.287-.017-.43-.025-.234-.013-.467-.023-.707-.042-.174-.013-.355-.033-.532-.05-.215-.02-.428-.037-.648-.062-.189-.021-.384-.048-.576-.073-.198-.025-.392-.046-.593-.075-1.152.232-2.525.348-4.119.348-2.896,0-6.259-.486-10.089-1.457-.691-.175-1.374-.359-2.049-.552v10.695c3.115,1.284,6.203,2.199,9.264,2.75.43.077.876.148,1.33.214.142.021.289.039.433.059.321.044.647.086.979.124.172.02.347.039.522.057.325.034.656.066.992.096.176.015.351.031.53.046.386.031.781.057,1.181.082.11.007.216.015.327.021,4.068-.269,7.583-.969,10.544-2.101,3.885-1.484,6.808-3.665,8.77-6.543Z" style="fill:#414142;"/><path d="M93.647,236.72c-.013-.002-.025-.005-.038-.008-.582-.103-1.154-.225-1.72-.358-.172-.04-.341-.085-.512-.128-.425-.107-.845-.223-1.261-.348-.166-.05-.332-.098-.497-.15-.557-.177-1.109-.365-1.65-.574-3.611-1.393-6.745-3.455-9.402-6.185-2.658-2.73-4.71-6.076-6.158-10.034-1.449-3.959-2.172-8.503-2.172-13.635,0-6.818,1.21-12.591,3.629-17.319,2.419-4.729,5.864-8.32,10.336-10.776.503-.276,1.021-.532,1.545-.777.155-.073.313-.141.471-.211.394-.175.794-.342,1.201-.5.161-.063.321-.127.485-.187.554-.204,1.115-.397,1.691-.57.004-.001.009-.002.013-.004.572-.171,1.158-.322,1.751-.463.176-.042.356-.08.534-.119.449-.099.904-.188,1.365-.27.182-.032.362-.066.546-.095.625-.1,1.257-.19,1.903-.259-1.36-.154-2.762-.231-4.204-.231-6.195,0-11.528,1.229-16,3.684-4.472,2.456-7.917,6.047-10.336,10.776-2.419,4.728-3.629,10.501-3.629,17.319,0,5.132.723,9.677,2.172,13.635,1.447,3.959,3.499,7.304,6.158,10.034,2.657,2.731,5.791,4.792,9.402,6.185,3.61,1.393,7.578,2.089,11.904,2.089,1.545,0,3.038-.078,4.478-.234-.067-.008-.131-.021-.198-.029-.609-.073-1.213-.157-1.807-.261Z" style="fill:#ee6331;"/><path d="M96.831,223.451c.202.043.41.077.619.111.137.023.271.049.411.067.236.032.481.053.725.074.121.01.239.026.362.034.372.024.753.037,1.145.037,2.969,0,5.379-.696,7.23-2.089,1.85-1.392,3.207-3.464,4.068-6.212.861-2.75,1.292-6.139,1.292-10.172,0-4.069-.431-7.45-1.292-10.144-.862-2.694-2.226-4.719-4.096-6.075-1.87-1.356-4.308-2.034-7.312-2.034-.496,0-.971.026-1.436.064-.132.011-.261.025-.39.039-.358.038-.707.088-1.046.15-.105.019-.213.034-.317.056-.387.08-.76.179-1.122.29,1.094.337,2.068.815,2.924,1.435,1.87,1.357,3.235,3.382,4.096,6.075.861,2.694,1.292,6.075,1.292,10.144,0,4.032-.431,7.422-1.292,10.172-.862,2.749-2.218,4.82-4.069,6.212-.847.638-1.812,1.129-2.893,1.475.043.014.085.029.129.043.181.055.369.102.557.148.138.034.274.071.416.101Z" style="fill:#ee6331;"/><path d="M90.116,235.879c.416.125.837.241,1.261.348-.425-.107-.845-.223-1.261-.348Z" style="fill:#ee6331;"/><path d="M87.969,235.155c.541.209,1.093.397,1.65.574-.557-.177-1.109-.365-1.65-.574Z" style="fill:#ee6331;"/><path d="M93.647,236.72c.593.104,1.197.188,1.807.261-.609-.073-1.213-.157-1.807-.261Z" style="fill:#ee6331;"/><path d="M98.948,223.737c-.124-.008-.241-.023-.362-.034.121.01.239.026.362.034Z" style="fill:#ee6331;"/><path d="M97.11,187.299c.339-.062.688-.112,1.046-.15-.358.038-.707.088-1.046.15Z" style="fill:#ee6331;"/><path d="M97.861,223.629c-.14-.019-.274-.045-.411-.067.137.023.271.049.411.067Z" style="fill:#ee6331;"/><path d="M96.831,223.451c-.141-.03-.278-.067-.416-.101.138.034.274.071.416.101Z" style="fill:#ee6331;"/><path d="M91.889,236.355c.567.133,1.139.255,1.72.358-.582-.103-1.154-.225-1.72-.358Z" style="fill:#ee6331;"/><path d="M98.547,187.109c.465-.038.94-.064,1.436-.064-.496,0-.971.026-1.436.064Z" style="fill:#ee6331;"/><path d="M93.804,174.01c-.183.029-.364.063-.546.095.182-.032.362-.066.546-.095Z" style="fill:#ee6331;"/><path d="M91.894,174.375c-.178.039-.358.077-.534.119.176-.042.356-.08.534-.119Z" style="fill:#ee6331;"/><path d="M87.904,175.53c-.163.06-.323.124-.485.187.161-.063.321-.127.485-.187Z" style="fill:#ee6331;"/><path d="M86.219,176.216c-.157.07-.315.138-.471.211.155-.073.313-.141.471-.211Z" style="fill:#ee6331;"/><path d="M96.794,187.354c-.39.081-.771.173-1.136.285.005.002.009.003.014.005.362-.111.735-.21,1.122-.29Z" style="fill:#ee6331;"/><path d="M95.717,223.163c.046.014.096.024.142.038-.044-.013-.085-.029-.129-.043-.005.002-.009.003-.013.005Z" style="fill:#ee6331;"/><path d="M89.608,174.956s-.009.002-.013.004c.004-.001.009-.002.013-.004Z" style="fill:#ee6331;"/><path d="M100.093,223.773c-.392,0-.772-.013-1.145-.037.372.024.753.037,1.145.037Z" style="fill:#3f2b1d;"/><path d="M95.859,223.201c.181.055.369.102.557.148-.188-.047-.375-.094-.557-.148Z" style="fill:#3f2b1d;"/><path d="M97.45,223.562c-.209-.034-.417-.068-.619-.111.202.043.41.077.619.111Z" style="fill:#3f2b1d;"/><path d="M98.586,223.703c-.245-.021-.489-.042-.725-.074.236.032.481.053.725.074Z" style="fill:#3f2b1d;"/><path d="M89.596,174.96c-.576.173-1.137.366-1.691.57.554-.204,1.115-.397,1.691-.57Z" style="fill:#3f2b1d;"/><path d="M93.259,174.105c-.461.081-.916.171-1.365.27.449-.099.904-.188,1.365-.27Z" style="fill:#3f2b1d;"/><path d="M95.709,173.752s0,0-.001,0c-.646.069-1.279.159-1.903.259.625-.1,1.258-.189,1.905-.259Z" style="fill:#3f2b1d;"/><path d="M98.156,187.149c.129-.014.258-.028.39-.039-.132.011-.261.025-.39.039Z" style="fill:#3f2b1d;"/><path d="M87.42,175.717c-.406.158-.806.325-1.201.5.394-.175.794-.342,1.201-.5Z" style="fill:#3f2b1d;"/><path d="M91.36,174.493c-.593.141-1.179.292-1.751.463.572-.171,1.158-.322,1.751-.463Z" style="fill:#3f2b1d;"/><path d="M85.748,176.427c-.525.245-1.042.5-1.545.777.503-.276,1.021-.532,1.545-.777Z" style="fill:#3f2b1d;"/><path d="M96.794,187.354c.103-.021.211-.037.317-.056-.105.019-.213.034-.317.056Z" style="fill:#3f2b1d;"/><path d="M95.652,237.01c.011-.001.021-.003.031-.004-.076-.009-.153-.015-.229-.024.067.008.131.021.198.029Z" style="fill:#3f2b1d;"/><path d="M93.609,236.713c.013.002.025.005.038.008-.013-.002-.025-.005-.038-.008Z" style="fill:#3f2b1d;"/><path d="M89.619,235.729c.164.052.331.101.497.15-.166-.05-.332-.098-.497-.15Z" style="fill:#3f2b1d;"/><path d="M91.377,236.227c.17.043.34.088.512.128-.172-.04-.341-.085-.512-.128Z" style="fill:#3f2b1d;"/><path d="M113.084,228.969c2.62-2.73,4.618-6.076,5.993-10.034,1.374-3.959,2.062-8.503,2.062-13.635,0-6.818-1.275-12.591-3.822-17.319-2.548-4.729-6.047-8.32-10.501-10.776-3.337-1.84-7.04-2.991-11.107-3.452-.647.069-1.28.159-1.905.259-.183.029-.364.063-.546.095-.461.081-.916.171-1.365.27-.178.039-.357.077-.534.119-.593.141-1.179.292-1.751.463-.004.001-.009.002-.013.004-.576.173-1.137.366-1.691.57-.163.06-.323.124-.485.187-.406.158-.806.325-1.201.5-.157.07-.315.138-.471.211-.525.245-1.042.5-1.545.777-4.473,2.456-7.918,6.047-10.336,10.776-2.419,4.728-3.629,10.501-3.629,17.319,0,5.132.723,9.677,2.172,13.635,1.448,3.959,3.5,7.304,6.158,10.034,2.657,2.731,5.791,4.792,9.402,6.185.541.209,1.093.397,1.65.574.164.052.331.101.497.15.416.125.837.241,1.261.348.17.043.34.088.512.128.566.133,1.139.255,1.72.358.013.002.025.005.038.008.593.104,1.197.188,1.807.261.076.009.153.016.229.024,2.853-.311,5.502-.928,7.944-1.851,3.684-1.393,6.836-3.455,9.457-6.185ZM95.717,223.163c-1.278.407-2.719.61-4.324.61-3.006,0-5.443-.696-7.313-2.089-1.87-1.392-3.244-3.464-4.124-6.212-.88-2.75-1.319-6.139-1.319-10.172,0-6.084.998-10.648,2.997-13.69,1.997-3.042,5.214-4.564,9.649-4.564,1.624,0,3.082.198,4.374.594.365-.113.746-.205,1.136-.285.103-.021.211-.037.317-.056.339-.062.688-.112,1.046-.15.129-.014.258-.028.39-.039.465-.038.94-.064,1.436-.064,3.005,0,5.443.679,7.312,2.034,1.87,1.357,3.234,3.382,4.096,6.075.861,2.694,1.292,6.075,1.292,10.144,0,4.032-.431,7.422-1.292,10.172-.862,2.749-2.218,4.82-4.068,6.212-1.851,1.394-4.261,2.089-7.23,2.089-.392,0-.772-.013-1.145-.037-.124-.008-.241-.023-.362-.034-.245-.021-.489-.042-.725-.074-.14-.019-.274-.045-.411-.067-.209-.034-.417-.068-.619-.111-.141-.03-.278-.067-.416-.101-.188-.047-.375-.094-.557-.148-.046-.014-.096-.023-.142-.038Z" style="fill:#414142;"/><path d="M166.344,223.336c.127.042.256.083.388.121.203.058.413.107.626.153.132.028.263.059.399.082.238.042.486.072.736.1.121.013.238.032.363.042.379.031.769.049,1.173.049,3.409,0,6.084-.779,8.028-2.337,1.943-1.558,3.308-3.849,4.096-6.873.787-3.024,1.182-6.716,1.182-11.079v-28.92h-8.7v28.92c0,4.362-.394,8.054-1.182,11.079-.789,3.024-2.154,5.315-4.096,6.873-.924.741-2.015,1.305-3.271,1.694.086.032.169.067.258.096Z" style="fill:#ee6331;"/><path d="M184.104,228.282c-1.319,2.09-2.969,3.794-4.948,5.114-.39.26-.788.506-1.193.739l.576,2.01h8.7l-2.254-7.863h-.88Z" style="fill:#ee6331;"/><path d="M158.914,236.635c-.124-.026-.243-.058-.366-.085-.434-.097-.862-.203-1.281-.32-.175-.049-.347-.101-.519-.154-.377-.115-.748-.239-1.112-.371-.155-.056-.312-.11-.465-.169-.501-.194-.994-.4-1.471-.628-3.263-1.558-5.801-3.986-7.615-7.286-1.815-3.299-2.722-7.587-2.722-12.865v-40.081h-8.7v40.081c0,5.278.907,9.567,2.722,12.865,1.814,3.3,4.352,5.728,7.615,7.286,3.262,1.557,7.093,2.336,11.491,2.336,1.439,0,2.849-.098,4.231-.294-.034-.005-.066-.013-.099-.017-.581-.083-1.151-.181-1.709-.297Z" style="fill:#ee6331;"/><path d="M158.914,236.635c.557.116,1.127.214,1.709.297-.581-.083-1.151-.181-1.709-.297Z" style="fill:#ee6331;"/><path d="M155.636,235.705c.365.132.735.256,1.112.371-.377-.115-.748-.239-1.112-.371Z" style="fill:#ee6331;"/><path d="M153.7,234.907c.477.228.97.434,1.471.628-.501-.194-.994-.4-1.471-.628Z" style="fill:#ee6331;"/><path d="M157.267,236.23c.419.117.847.223,1.281.32-.434-.097-.862-.203-1.281-.32Z" style="fill:#ee6331;"/><path d="M167.757,223.692c.238.042.486.072.736.1-.25-.028-.498-.058-.736-.1Z" style="fill:#ee6331;"/><path d="M168.855,223.834c.379.031.769.049,1.173.049-.405,0-.794-.018-1.173-.049Z" style="fill:#ee6331;"/><path d="M166.731,223.457c.203.058.413.107.626.153-.213-.046-.423-.095-.626-.153Z" style="fill:#ee6331;"/><path d="M166.344,223.336c-.088-.029-.171-.064-.258-.096-.008.002-.015.006-.024.008.09.033.189.057.281.087Z" style="fill:#ee6331;"/><path d="M155.171,235.535c.153.059.31.113.465.169-.155-.056-.312-.11-.465-.169Z" style="fill:#3f2b1d;"/><path d="M168.493,223.792c.121.013.238.032.363.042-.124-.01-.241-.029-.363-.042Z" style="fill:#3f2b1d;"/><path d="M158.549,236.55c.123.027.242.059.366.085-.124-.026-.243-.058-.366-.085Z" style="fill:#3f2b1d;"/><path d="M167.358,223.61c.132.028.263.059.399.082-.136-.024-.267-.054-.399-.082Z" style="fill:#3f2b1d;"/><path d="M156.748,236.076c.172.052.345.105.519.154-.175-.049-.347-.101-.519-.154Z" style="fill:#3f2b1d;"/><path d="M166.344,223.336c.127.042.256.083.388.121-.132-.037-.26-.078-.388-.121Z" style="fill:#3f2b1d;"/><path d="M160.722,236.949c.006,0,.012-.002.018-.003-.039-.005-.079-.009-.118-.014.034.005.065.013.099.017Z" style="fill:#3f2b1d;"/><path d="M177.959,234.122l.004.013c.406-.233.803-.479,1.193-.739-.389.259-.792.494-1.197.726Z" style="fill:#3f2b1d;"/><path d="M182.153,214.674c-.789,3.024-2.154,5.315-4.096,6.873-1.943,1.558-4.618,2.337-8.028,2.337-.405,0-.794-.018-1.173-.049-.124-.01-.241-.029-.363-.042-.25-.028-.498-.058-.736-.1-.136-.024-.267-.054-.399-.082-.213-.046-.423-.095-.626-.153-.132-.037-.26-.078-.388-.121-.092-.031-.191-.054-.281-.087-1.378.423-2.956.635-4.733.635-3.445,0-5.957-1.118-7.532-3.354-1.576-2.235-2.364-5.553-2.364-9.951v-35.903h-8.07v40.081c0,5.278.907,9.567,2.722,12.865,1.814,3.3,4.352,5.728,7.615,7.286.477.228.97.434,1.471.628.153.059.31.113.465.169.365.132.735.256,1.112.371.172.052.345.105.519.154.419.117.847.223,1.281.32.123.027.242.059.366.085.557.116,1.127.214,1.709.297.039.005.079.009.118.014,1.075-.153,2.133-.365,3.173-.637,2.382-.623,4.564-1.595,6.543-2.914,1.979-1.32,3.629-3.024,4.948-5.114h.88l1.675,5.84c.405-.232.808-.467,1.197-.726,1.979-1.32,3.629-3.024,4.948-5.114h.88l2.254,7.863h4.166v-61.469h-8.07v28.92c0,4.362-.395,8.054-1.182,11.079Z" style="fill:#414142;"/><path d="M128.979,257.507c1.21-2.089,2.722-4.005,4.536-5.746s3.885-3.134,6.213-4.179c.296-.133.596-.257.899-.374.105-.04.213-.074.319-.113.199-.072.397-.145.599-.21.125-.04.253-.074.38-.111.186-.055.371-.112.559-.161.133-.035.269-.063.403-.095.184-.043.368-.088.554-.126.024-.005.047-.011.071-.016-.564-.087-1.224-.162-1.981-.224-1.119-.091-2.099-.137-2.942-.137-2.713,0-5.233.522-7.56,1.567-1.66.745-3.189,1.667-4.588,2.766l1.714,7.158h.824Z" style="fill:#ee6331;"/><rect x="104.28" y="247.17" width="8.699" height="61.469" style="fill:#ee6331;"/><path d="M142.987,262.235l.021-.256c-.201.031-.401.063-.6.099.214.048.409.1.579.156Z" style="fill:#ee6331;"/><path d="M140.627,247.209c-.303.116-.603.24-.899.374.296-.133.596-.257.899-.374Z" style="fill:#ee6331;"/><path d="M142.383,262.072c.009.002.015.004.024.006.199-.036.399-.068.6-.099v-.012c-.208.032-.416.067-.624.105Z" style="fill:#ee6331;"/><path d="M142.483,246.614c-.188.049-.373.106-.559.161.186-.055.371-.112.559-.161Z" style="fill:#ee6331;"/><path d="M141.545,246.886c-.202.065-.4.138-.599.21.199-.072.397-.145.599-.21Z" style="fill:#ee6331;"/><path d="M143.44,246.393c-.186.038-.37.083-.554.126.184-.043.368-.088.554-.126Z" style="fill:#ee6331;"/><polygon points="126.441 250.348 126.441 250.348 128.154 257.507 126.441 250.348" style="fill:#3f2b1d;"/><path d="M143.52,246.379s-.006-.001-.009-.002c-.024.005-.047.011-.071.016.026-.005.054-.009.08-.014Z" style="fill:#3f2b1d;"/><path d="M142.886,246.519c-.134.032-.27.06-.403.095.133-.035.269-.063.403-.095Z" style="fill:#3f2b1d;"/><path d="M140.946,247.096c-.106.038-.214.072-.319.113.105-.04.213-.074.319-.113Z" style="fill:#3f2b1d;"/><path d="M141.925,246.775c-.126.038-.254.071-.38.111.125-.04.253-.074.38-.111Z" style="fill:#3f2b1d;"/><path d="M122.451,270.015c.935-1.997,2.208-3.61,3.821-4.838,1.613-1.227,3.436-2.117,5.471-2.667,2.034-.55,4.132-.824,6.295-.824.732,0,1.603.046,2.612.137.683.062,1.261.145,1.733.25.208-.038.416-.073.625-.105l1.244-15.457c-.222-.047-.466-.09-.731-.131-.026.005-.054.009-.08.014-.186.038-.37.083-.554.126-.134.032-.27.06-.403.095-.188.049-.373.106-.559.161-.126.038-.254.071-.38.111-.202.065-.4.138-.599.21-.106.038-.214.072-.319.113-.303.116-.603.24-.899.374-2.328,1.045-4.399,2.438-6.213,4.179s-3.326,3.656-4.536,5.746h-.824l-1.714-7.158c-.563.442-1.104.913-1.625,1.413-1.815,1.741-3.327,3.656-4.536,5.746h-.825l-2.474-10.337h-4.001v61.469h8.07v-31.284c0-2.895.467-5.341,1.402-7.34Z" style="fill:#414142;"/><path d="M187.737,295.906c.18.034.364.061.549.088.119.017.236.037.357.051.206.025.417.042.629.058.104.008.206.02.312.026.319.018.644.029.975.029.732,0,1.442-.025,2.139-.067.08-.005.162-.007.242-.013.659-.044,1.3-.109,1.928-.19.105-.013.21-.026.314-.041.612-.085,1.21-.189,1.792-.311.101-.021.202-.043.302-.066.584-.129,1.155-.274,1.709-.44.028-.008.056-.018.084-.027v-4.179c-2.566,1.686-5.205,2.996-7.917,3.931-1.271.438-2.628.773-4.068,1.005.096.023.192.047.289.068.121.026.242.053.364.076Z" style="fill:#ee6331;"/><path d="M184.294,309.483c-.456-.049-.906-.105-1.349-.169-.205-.03-.409-.06-.611-.093-.464-.075-.92-.16-1.371-.251-.147-.03-.297-.056-.442-.087-.584-.127-1.157-.267-1.718-.422-.129-.036-.253-.077-.381-.114-.434-.126-.863-.26-1.283-.403-.179-.061-.355-.125-.531-.189-.38-.138-.754-.285-1.123-.437-.158-.066-.319-.129-.475-.198-.509-.223-1.01-.455-1.496-.707-4.289-2.217-7.551-5.653-9.787-10.309-2.236-4.654-3.354-10.612-3.354-17.869,0-7.514,1.273-13.644,3.821-18.391,2.547-4.747,6.084-8.238,10.612-10.474.512-.253,1.036-.487,1.567-.711.16-.067.322-.13.484-.195.388-.156.781-.305,1.179-.446.175-.062.349-.124.525-.183.462-.154.93-.299,1.405-.434.099-.028.195-.06.294-.087.572-.157,1.154-.297,1.745-.425.162-.035.327-.065.49-.098.443-.09.89-.172,1.344-.246.199-.032.399-.064.6-.093.468-.068.941-.128,1.42-.18.16-.017.318-.039.479-.054.055-.005.108-.013.162-.018-1.462-.121-3.009-.182-4.64-.182-5.975,0-11.225,1.119-15.752,3.353-4.527,2.237-8.064,5.728-10.612,10.474-2.548,4.747-3.821,10.878-3.821,18.391,0,7.258,1.118,13.215,3.354,17.869,2.236,4.656,5.498,8.091,9.787,10.309,4.289,2.218,9.475,3.326,15.56,3.326,1.696,0,3.275-.056,4.738-.168-.084-.007-.164-.019-.248-.027-.192-.018-.381-.041-.571-.062Z" style="fill:#ee6331;"/><path d="M195.561,260.092c-.336-.073-.671-.129-1.007-.188-.22-.039-.44-.086-.661-.118-.373-.054-.745-.089-1.118-.125-.183-.018-.366-.045-.55-.059-.556-.041-1.112-.062-1.668-.062-.363,0-.718.011-1.065.032-.116.007-.226.022-.34.031-.228.019-.458.036-.679.064-.134.017-.262.042-.393.063-.195.03-.392.057-.581.095-.138.028-.271.064-.406.095-.16.037-.322.072-.479.115.687.143,1.375.317,2.063.522,2.273.679,4.728,1.549,7.368,2.612l1.026-2.691c-.268-.076-.536-.143-.805-.21-.235-.059-.47-.124-.705-.176Z" style="fill:#ee6331;"/><path d="M196.266,260.268c.268.067.536.134.805.21l.003-.008c-.269-.077-.539-.134-.808-.201Z" style="fill:#ee6331;"/><path d="M186.337,246.216c-.161.015-.319.037-.479.054.16-.017.318-.038.479-.054Z" style="fill:#ee6331;"/><path d="M192.775,259.662c.373.036.745.071,1.118.125-.373-.055-.746-.089-1.118-.125Z" style="fill:#ee6331;"/><path d="M189.493,259.573c.348-.021.703-.032,1.065-.032-.363,0-.718.011-1.065.032Z" style="fill:#ee6331;"/><path d="M194.554,259.905c.336.059.671.114,1.007.188-.336-.073-.671-.129-1.007-.188Z" style="fill:#ee6331;"/><path d="M184.438,246.45c-.201.03-.401.061-.6.093.199-.032.399-.064.6-.093Z" style="fill:#ee6331;"/><path d="M190.558,259.541c.556,0,1.112.022,1.668.062-.556-.041-1.112-.062-1.668-.062Z" style="fill:#ee6331;"/><path d="M188.473,259.668c.222-.028.451-.045.679-.064-.228.019-.458.036-.679.064Z" style="fill:#ee6331;"/><path d="M178.421,308.346c.128.037.252.078.381.114-.129-.036-.253-.077-.381-.114Z" style="fill:#ee6331;"/><path d="M182.333,309.221c.202.033.407.063.611.093-.205-.03-.409-.06-.611-.093Z" style="fill:#ee6331;"/><path d="M180.52,308.883c.145.031.295.057.442.087-.147-.03-.297-.056-.442-.087Z" style="fill:#ee6331;"/><path d="M184.294,309.483c.19.021.379.044.571.062-.192-.018-.381-.041-.571-.062Z" style="fill:#ee6331;"/><path d="M180.26,247.312c-.099.027-.196.059-.294.087.099-.028.195-.06.294-.087Z" style="fill:#ee6331;"/><path d="M178.561,247.833c-.176.059-.351.121-.525.183.175-.062.349-.124.525-.183Z" style="fill:#ee6331;"/><path d="M176.607,307.754c.176.064.352.128.531.189-.179-.061-.355-.125-.531-.189Z" style="fill:#ee6331;"/><path d="M182.494,246.789c-.163.033-.328.063-.49.098.162-.035.327-.065.49-.098Z" style="fill:#ee6331;"/><path d="M175.01,307.119c.156.068.316.132.475.198-.158-.066-.319-.129-.475-.198Z" style="fill:#ee6331;"/><path d="M176.856,248.462c-.161.065-.324.128-.484.195.16-.067.322-.13.484-.195Z" style="fill:#ee6331;"/><path d="M190.558,296.158c-.331,0-.656-.011-.975-.029.319.018.644.029.975.029Z" style="fill:#ee6331;"/><path d="M189.271,296.104c-.212-.016-.423-.034-.629-.058.206.025.417.042.629.058Z" style="fill:#ee6331;"/><path d="M188.285,295.994c-.185-.027-.369-.055-.549-.088.18.034.364.061.549.088Z" style="fill:#ee6331;"/><path d="M192.94,296.079c-.08.005-.162.008-.242.013.08-.005.162-.007.242-.013Z" style="fill:#ee6331;"/><path d="M199.068,295.01v-.005c-.028.009-.055.018-.084.027.027-.008.057-.013.084-.022Z" style="fill:#ee6331;"/><path d="M195.181,295.848c-.104.015-.209.027-.314.041.105-.013.21-.026.314-.041Z" style="fill:#ee6331;"/><path d="M187.372,295.83c-.097-.021-.193-.045-.289-.068-.007.001-.013.003-.019.004.101.024.206.042.308.064Z" style="fill:#ee6331;"/><path d="M197.276,295.472c-.1.022-.201.045-.302.066.101-.021.202-.043.302-.066Z" style="fill:#ee6331;"/><path d="M187.499,259.826c.189-.038.386-.065.581-.095-.195.03-.392.057-.581.095Z" style="fill:#ee6331;"/><path d="M186.608,260.034s.004.001.006.001c.156-.043.318-.078.479-.115-.162.038-.327.07-.485.114Z" style="fill:#ee6331;"/><path d="M194.867,295.889c-.628.081-1.269.146-1.928.19.659-.044,1.3-.109,1.928-.19Z" style="fill:#3f2b1d;"/><path d="M180.962,308.97c.451.091.907.176,1.371.251-.464-.075-.92-.16-1.371-.251Z" style="fill:#3f2b1d;"/><path d="M178.802,308.46c.561.155,1.134.295,1.718.422-.584-.127-1.157-.267-1.718-.422Z" style="fill:#3f2b1d;"/><path d="M175.484,307.317c.368.153.742.299,1.123.437-.38-.138-.754-.285-1.123-.437Z" style="fill:#3f2b1d;"/><path d="M177.138,307.943c.42.143.849.277,1.283.403-.434-.126-.863-.26-1.283-.403Z" style="fill:#3f2b1d;"/><path d="M192.226,259.603c.183.013.366.041.55.059-.183-.018-.366-.045-.55-.059Z" style="fill:#3f2b1d;"/><path d="M182.944,309.313c.444.064.894.12,1.349.169-.456-.049-.906-.105-1.349-.169Z" style="fill:#3f2b1d;"/><path d="M198.984,295.031c-.554.166-1.125.311-1.709.44.584-.129,1.155-.274,1.709-.44Z" style="fill:#3f2b1d;"/><path d="M185.113,309.571c.018-.001.035-.004.054-.005-.099-.009-.203-.013-.302-.022.084.008.164.02.248.027Z" style="fill:#3f2b1d;"/><path d="M188.08,259.73c.132-.02.259-.046.393-.063-.134.017-.262.042-.393.063Z" style="fill:#3f2b1d;"/><path d="M196.974,295.537c-.583.121-1.18.225-1.792.311.612-.085,1.21-.189,1.792-.311Z" style="fill:#3f2b1d;"/><path d="M189.152,259.604c.114-.009.225-.024.34-.031-.116.007-.226.022-.34.031Z" style="fill:#3f2b1d;"/><path d="M192.698,296.092c-.697.041-1.408.067-2.139.067.731,0,1.442-.025,2.139-.067Z" style="fill:#3f2b1d;"/><path d="M193.894,259.787c.22.032.44.079.661.118-.22-.039-.44-.086-.661-.118Z" style="fill:#3f2b1d;"/><path d="M183.838,246.543c-.453.074-.901.156-1.344.246.443-.09.891-.172,1.344-.246Z" style="fill:#3f2b1d;"/><path d="M188.642,296.045c-.121-.014-.238-.034-.357-.051.119.017.236.037.357.051Z" style="fill:#3f2b1d;"/><path d="M195.561,260.092c.235.051.47.117.705.176-.235-.059-.47-.124-.705-.176Z" style="fill:#3f2b1d;"/><path d="M182.004,246.887c-.59.128-1.173.269-1.745.425.572-.157,1.154-.297,1.745-.425Z" style="fill:#3f2b1d;"/><path d="M187.737,295.906c-.123-.023-.244-.05-.364-.076.121.026.241.053.364.076Z" style="fill:#3f2b1d;"/><path d="M173.514,306.412c.486.251.987.484,1.496.707-.509-.223-1.01-.455-1.496-.707Z" style="fill:#3f2b1d;"/><path d="M186.535,246.201c-.012-.001-.024-.003-.036-.004-.055.005-.108.013-.162.018.065-.006.133-.009.199-.015Z" style="fill:#3f2b1d;"/><path d="M185.858,246.27c-.478.052-.952.111-1.42.18.468-.068.941-.128,1.42-.18Z" style="fill:#3f2b1d;"/><path d="M178.035,248.016c-.398.141-.791.29-1.179.446.388-.156.781-.305,1.179-.446Z" style="fill:#3f2b1d;"/><path d="M176.373,248.658c-.53.224-1.055.458-1.567.711.512-.253,1.036-.487,1.567-.711Z" style="fill:#3f2b1d;"/><path d="M189.583,296.129c-.106-.006-.207-.018-.312-.026.104.008.206.02.312.026Z" style="fill:#3f2b1d;"/><path d="M179.965,247.399c-.475.135-.943.279-1.405.434.462-.154.93-.299,1.405-.434Z" style="fill:#3f2b1d;"/><path d="M187.093,259.921c.136-.032.268-.068.406-.095-.138.028-.271.064-.406.095Z" style="fill:#3f2b1d;"/><path d="M199.068,305.176v-10.166c-.027.008-.057.013-.084.022-.554.166-1.125.311-1.709.44-.1.022-.201.045-.302.066-.583.121-1.18.225-1.792.311-.104.015-.209.027-.314.041-.628.081-1.269.146-1.928.19-.08.005-.162.008-.242.013-.697.041-1.408.067-2.139.067-.331,0-.656-.011-.975-.029-.106-.006-.207-.018-.312-.026-.212-.016-.423-.034-.629-.058-.121-.014-.238-.034-.357-.051-.185-.027-.369-.055-.549-.088-.123-.023-.244-.05-.364-.076-.102-.022-.208-.04-.308-.064-1.627.262-3.362.393-5.205.393-2.786,0-5.15-.65-7.092-1.952-1.943-1.301-3.428-3.29-4.453-5.966-1.027-2.675-1.54-6.048-1.54-10.117,0-4.142.476-7.587,1.429-10.336.953-2.749,2.4-4.811,4.344-6.185,1.942-1.375,4.379-2.062,7.312-2.062,1.583,0,3.166.165,4.749.494.158-.043.323-.076.485-.114.136-.032.268-.068.406-.095.189-.038.386-.065.581-.095.132-.02.259-.046.393-.063.221-.028.451-.045.679-.064.114-.009.225-.024.34-.031.348-.021.703-.032,1.065-.032.556,0,1.112.022,1.668.062.183.013.366.041.55.059.373.036.745.071,1.118.125.22.032.44.079.661.118.336.059.671.114,1.007.188.235.051.47.117.705.176.269.067.539.125.808.201l3.918-10.276c-2.309-1.135-5.013-2.117-8.11-2.941-1.899-.505-4.015-.855-6.347-1.051-.066.006-.133.008-.199.015-.161.016-.319.037-.479.054-.478.052-.952.111-1.42.18-.201.03-.401.061-.6.093-.453.074-.901.156-1.344.246-.163.033-.328.063-.49.098-.59.128-1.173.269-1.745.425-.099.027-.196.059-.294.087-.475.135-.943.279-1.405.434-.177.059-.351.121-.525.183-.398.141-.791.29-1.179.446-.161.065-.324.128-.484.195-.53.224-1.055.458-1.567.711-4.527,2.237-8.064,5.728-10.612,10.474-2.548,4.747-3.821,10.878-3.821,18.391,0,7.258,1.118,13.215,3.354,17.869,2.235,4.656,5.498,8.091,9.787,10.309.486.251.987.484,1.496.707.156.068.316.132.475.198.368.153.742.299,1.123.437.176.064.352.128.531.189.42.143.849.277,1.283.403.128.037.252.078.381.114.561.155,1.134.295,1.718.422.145.031.295.057.442.087.451.091.907.176,1.371.251.202.033.407.063.611.093.444.064.894.12,1.349.169.19.021.379.044.571.062.099.009.202.013.302.022,2.215-.172,4.166-.471,5.847-.9,2.804-.714,5.489-1.877,8.055-3.491Z" style="fill:#414142;"/><path d="M248.338,297.133c.174.018.339.047.516.06.565.043,1.146.065,1.743.065,3.922,0,7.514-.403,10.777-1.21.451-.111.908-.249,1.362-.376v-3.253c-3.446,1.613-6.8,2.823-10.062,3.628-1.736.429-3.566.744-5.489.945.008.001.016.004.025.005.365.059.747.096,1.128.135Z" style="fill:#ee6331;"/><path d="M253.98,259.651c-1.705-1.135-3.877-1.704-6.516-1.704-.396,0-.783.017-1.162.048-.125.01-.244.031-.367.044-.251.028-.502.055-.746.096-.144.024-.281.059-.422.088-.215.045-.431.088-.641.144-.147.039-.29.088-.434.133-.148.046-.295.093-.44.145.737.262,1.413.597,2.029,1.007,1.705,1.136,2.987,2.676,3.849,4.618.861,1.944,1.31,4.161,1.347,6.653h8.699c-.037-2.492-.486-4.71-1.347-6.653-.862-1.942-2.144-3.482-3.848-4.618Z" style="fill:#ee6331;"/><path d="M244.974,309.48c-.456-.049-.908-.105-1.356-.168-.21-.03-.42-.057-.628-.09-.569-.089-1.131-.19-1.685-.302-.07-.014-.142-.025-.212-.04-.62-.13-1.23-.277-1.832-.436-.179-.047-.355-.101-.533-.151-.427-.12-.85-.247-1.268-.382-.201-.065-.402-.133-.601-.201-.407-.141-.81-.29-1.208-.445-.175-.068-.352-.134-.526-.205-.56-.23-1.113-.47-1.654-.729-4.748-2.272-8.467-5.736-11.161-10.392-2.694-4.654-4.041-10.52-4.041-17.594,0-7.184,1.218-13.168,3.656-17.952,2.437-4.784,5.837-8.375,10.199-10.777.49-.27.992-.519,1.5-.758.15-.071.301-.137.453-.205.384-.172.772-.336,1.166-.491.151-.06.302-.121.455-.178.531-.199,1.069-.387,1.618-.555.038-.012.078-.021.117-.033.513-.155,1.036-.295,1.564-.424.172-.042.346-.08.519-.119.428-.096.861-.184,1.298-.264.166-.03.331-.063.499-.091.573-.095,1.152-.18,1.742-.247-1.41-.157-2.876-.235-4.4-.235-5.792,0-10.868,1.201-15.23,3.601-4.362,2.402-7.762,5.993-10.199,10.777-2.438,4.783-3.657,10.768-3.657,17.952,0,7.074,1.347,12.939,4.041,17.594,2.694,4.656,6.414,8.12,11.161,10.392,4.747,2.273,10.199,3.408,16.357,3.408,1.759,0,3.42-.048,4.983-.145-.153-.012-.302-.032-.454-.046-.23-.021-.457-.044-.685-.069Z" style="fill:#ee6331;"/><path d="M262.737,295.69v-.017c-.454.127-.911.265-1.362.376.452-.112.906-.231,1.362-.358Z" style="fill:#ee6331;"/><path d="M241.093,308.88c.07.015.142.025.212.04-.07-.014-.142-.025-.212-.04Z" style="fill:#ee6331;"/><path d="M242.99,309.222c.208.033.418.06.628.09-.21-.03-.42-.057-.628-.09Z" style="fill:#ee6331;"/><path d="M244.974,309.48c.227.024.455.048.685.069-.23-.021-.457-.044-.685-.069Z" style="fill:#ee6331;"/><path d="M247.211,296.998c-.008-.001-.016-.004-.025-.005-.003,0-.006,0-.009.001.011.002.023.002.033.004Z" style="fill:#ee6331;"/><path d="M246.302,257.994c.379-.031.766-.048,1.162-.048-.396,0-.783.017-1.162.048Z" style="fill:#ee6331;"/><path d="M248.855,297.193c-.177-.014-.342-.042-.516-.06.174.018.339.047.516.06Z" style="fill:#ee6331;"/><path d="M238.728,308.293c.178.05.353.103.533.151-.179-.047-.355-.101-.533-.151Z" style="fill:#ee6331;"/><path d="M243.691,258.499c-.151.047-.306.086-.454.139.005.002.009.004.014.006.145-.052.292-.099.44-.145Z" style="fill:#ee6331;"/><path d="M244.125,258.366c.209-.056.425-.099.641-.144-.215.045-.431.088-.641.144Z" style="fill:#ee6331;"/><path d="M245.189,258.134c.244-.041.495-.068.746-.096-.251.028-.502.055-.746.096Z" style="fill:#ee6331;"/><path d="M235.126,307.06c.173.071.35.137.526.205-.175-.068-.352-.134-.526-.205Z" style="fill:#ee6331;"/><path d="M239.516,246.852c-.173.039-.347.077-.519.119.172-.042.346-.08.519-.119Z" style="fill:#ee6331;"/><path d="M237.433,247.395c-.039.012-.078.021-.117.033.038-.012.078-.021.117-.033Z" style="fill:#ee6331;"/><path d="M234.077,248.653c-.151.068-.303.135-.453.205.15-.071.301-.137.453-.205Z" style="fill:#ee6331;"/><path d="M235.698,247.983c-.153.057-.303.119-.455.178.151-.06.302-.121.455-.178Z" style="fill:#ee6331;"/><path d="M241.313,246.498c-.168.028-.332.06-.499.091.166-.03.331-.063.499-.091Z" style="fill:#ee6331;"/><path d="M236.859,307.71c.199.069.399.136.601.201-.201-.065-.402-.133-.601-.201Z" style="fill:#ee6331;"/><path d="M243.691,258.499c.144-.045.287-.094.434-.133-.147.039-.29.088-.434.133Z" style="fill:#3f2b1d;"/><path d="M243.063,246.252s-.006,0-.009-.001c-.59.067-1.169.152-1.742.247.575-.095,1.158-.179,1.75-.246Z" style="fill:#3f2b1d;"/><path d="M238.997,246.972c-.529.129-1.051.268-1.564.424.513-.155,1.036-.295,1.564-.424Z" style="fill:#3f2b1d;"/><path d="M237.46,307.911c.418.135.841.262,1.268.382-.427-.12-.85-.247-1.268-.382Z" style="fill:#3f2b1d;"/><path d="M240.814,246.588c-.438.08-.871.168-1.298.264.428-.096.861-.184,1.298-.264Z" style="fill:#3f2b1d;"/><path d="M244.766,258.222c.141-.029.279-.064.422-.088-.144.024-.281.059-.422.088Z" style="fill:#3f2b1d;"/><path d="M237.316,247.428c-.549.169-1.087.356-1.618.555.531-.199,1.069-.387,1.618-.555Z" style="fill:#3f2b1d;"/><path d="M245.935,258.038c.123-.013.242-.034.367-.044-.125.01-.244.031-.367.044Z" style="fill:#3f2b1d;"/><path d="M248.338,297.133c-.381-.039-.763-.075-1.128-.135.365.059.747.096,1.128.135Z" style="fill:#3f2b1d;"/><path d="M233.471,306.33c.541.259,1.095.499,1.654.729-.56-.23-1.113-.47-1.654-.729Z" style="fill:#3f2b1d;"/><path d="M239.261,308.444c.602.159,1.211.307,1.832.436-.62-.13-1.23-.277-1.832-.436Z" style="fill:#3f2b1d;"/><path d="M235.651,307.265c.398.155.801.304,1.208.445-.407-.141-.81-.29-1.208-.445Z" style="fill:#3f2b1d;"/><path d="M243.618,309.312c.448.063.899.12,1.356.168-.456-.049-.908-.105-1.356-.168Z" style="fill:#3f2b1d;"/><path d="M241.305,308.92c.554.113,1.116.213,1.685.302-.569-.089-1.131-.19-1.685-.302Z" style="fill:#3f2b1d;"/><path d="M250.598,297.258c-.598,0-1.179-.022-1.743-.065.565.043,1.146.065,1.743.065Z" style="fill:#3f2b1d;"/><path d="M235.243,248.162c-.394.155-.783.319-1.166.491.384-.172.773-.336,1.166-.491Z" style="fill:#3f2b1d;"/><path d="M246.112,309.594c.029-.002.056-.005.085-.006-.179-.014-.361-.023-.539-.039.152.014.301.033.454.046Z" style="fill:#3f2b1d;"/><path d="M233.624,248.858c-.508.239-1.01.489-1.5.758.49-.27.992-.519,1.5-.758Z" style="fill:#3f2b1d;"/><path d="M266.201,273.946c0-5.974-1.119-11.033-3.354-15.175-2.237-4.141-5.408-7.302-9.512-9.484-3.002-1.595-6.427-2.606-10.272-3.035-.592.067-1.175.15-1.75.246-.168.028-.332.06-.499.091-.438.08-.871.168-1.298.264-.173.039-.347.077-.519.119-.529.129-1.051.268-1.564.424-.039.012-.078.021-.117.033-.549.169-1.087.357-1.618.555-.153.057-.303.119-.455.178-.394.155-.783.319-1.166.491-.151.068-.303.135-.453.205-.508.239-1.01.489-1.5.758-4.362,2.402-7.762,5.993-10.199,10.777-2.438,4.783-3.656,10.768-3.656,17.952,0,7.074,1.347,12.939,4.041,17.594,2.694,4.656,6.414,8.12,11.161,10.392.541.259,1.095.499,1.654.729.173.071.35.137.526.205.398.155.801.304,1.208.445.199.069.399.136.601.201.418.135.841.262,1.268.382.178.05.353.104.533.151.602.159,1.211.307,1.832.436.07.015.142.025.212.04.554.113,1.116.213,1.685.302.208.033.418.06.628.09.448.063.899.12,1.356.168.227.024.455.048.685.069.178.016.36.025.539.039,2.605-.164,4.94-.461,7-.893,3.317-.696,6.496-1.796,9.539-3.3v-9.705c-.456.127-.91.247-1.362.358-3.263.807-6.855,1.21-10.777,1.21-.598,0-1.179-.022-1.743-.065-.177-.014-.342-.042-.516-.06-.381-.039-.763-.075-1.128-.135-.011-.002-.023-.002-.033-.004-1.688.176-3.447.264-5.278.264-4.729,0-8.422-1.347-11.079-4.041-2.658-2.694-4.078-6.405-4.261-11.134h39.642v-8.137ZM250.476,270.922h-23.532c.33-4.472,1.567-7.753,3.712-9.842,2.144-2.089,4.847-3.134,8.11-3.134,1.68,0,3.171.231,4.473.691.148-.053.303-.092.454-.139.144-.045.287-.094.434-.133.209-.056.425-.099.641-.144.141-.029.279-.064.422-.088.244-.041.495-.068.746-.096.123-.013.242-.034.367-.044.379-.031.766-.048,1.162-.048,2.639,0,4.811.569,6.516,1.704,1.704,1.136,2.987,2.676,3.848,4.618.861,1.944,1.31,4.161,1.347,6.653h-8.699Z" style="fill:#414142;"/></svg>