<?xml version="1.0" encoding="UTF-8"?>
<svg id="Layer_1" xmlns="http://www.w3.org/2000/svg" version="1.1" viewBox="0 0 3960 1213.8">
  <!-- Generator: Adobe Illustrator 30.2.1, SVG Export Plug-In . SVG Version: 2.1.1 Build 1)  -->
  <defs>
    <style>
      .st0, .st1, .st2 {
        fill: #7a9857;
      }

      .st3, .st4, .st5 {
        fill: #e7b10a;
      }

      .st3, .st6, .st7, .st8, .st1, .st9, .st10, .st11, .st12, .st13 {
        opacity: .3;
      }

      .st4, .st14, .st15, .st16, .st2, .st17, .st18, .st19, .st20, .st21 {
        opacity: .3;
      }

      .st22, .st16, .st8 {
        fill: #419599;
      }

      .st6, .st14, .st23 {
        fill: #72994e;
      }

      .st7, .st15, .st24 {
        fill: #c44c21;
      }

      .st25, .st21, .st13 {
        fill: #dd6c40;
      }

      .st9, .st17, .st26 {
        fill: #4e6f95;
      }

      .st10, .st18, .st27 {
        fill: #589398;
      }

      .st11, .st19, .st28 {
        fill: #dfb33e;
      }

      .st29, .st20, .st12 {
        fill: #8f4b64;
      }
    </style>
  </defs>
  <g>
    <path class="st20" d="M1753.5,3192.6L3014.2,1009.4c3.3-5.7,1.3-12.9-4.3-16.2-5.7-3.3-12.9-1.3-16.2,4.3l-1267.5,2195h27.3Z"/>
    <path class="st12" d="M1753.5,3192.6L3014.2,1009.4c3.3-5.7-4.3-16.2-4.3-16.2l-1270,2199.3h13.7Z"/>
    <path class="st29" d="M3011.6,990.3h-13.7s-6.8,11.8-6.8,11.8l6.8,11.8h13.7s6.8-11.8,6.8-11.8l-6.8-11.8Z"/>
  </g>
  <g>
    <path class="st2" d="M-1468.4,6054.7L1379.4,1123.2c4-7,1.6-15.9-5.3-20-7-4-15.9-1.6-20,5.3L-1502.1,6054.7h33.7Z"/>
    <path class="st1" d="M-1468.4,6054.7L1379.4,1123.2c4-7-5.3-20-5.3-20L-1485.2,6054.7h16.9Z"/>
    <path class="st0" d="M1376.2,1099.5h-16.9s-8.4,14.6-8.4,14.6l8.5,14.6h16.9s8.5-14.6,8.5-14.6l-8.4-14.6Z"/>
  </g>
  <g>
    <path class="st17" d="M1318.4,5693.3L4166.2,761.8c4-7,1.6-15.9-5.3-20-7-4-15.9-1.6-20,5.3L1284.6,5693.3h33.7Z"/>
    <path class="st9" d="M1318.4,5693.3L4166.2,761.8c4-7-5.3-20-5.3-20L1301.5,5693.3h16.9Z"/>
    <path class="st26" d="M4163,738.1h-16.9s-8.4,14.6-8.4,14.6l8.5,14.6h16.9s8.5-14.6,8.5-14.6l-8.4-14.6Z"/>
  </g>
  <g>
    <path class="st19" d="M1435.7,2234.5l636.1-1101.5c3.8-6.7,1.6-15.2-5.1-19-6.7-3.8-15.2-1.6-19,5.1l-644.1,1115.5h32.2Z"/>
    <path class="st11" d="M1435.7,2234.5l636.1-1101.5c3.8-6.7-5.1-19-5.1-19l-647.1,1120.6h16.1Z"/>
    <path class="st28" d="M2068.8,1110.3h-16.1s-8.1,14-8.1,14l8.1,14h16.1s8.1-14,8.1-14l-8.1-14Z"/>
  </g>
  <g>
    <path class="st19" d="M-109.8,964L332.1,198.8c2.7-4.6,1.1-10.5-3.5-13.2-4.6-2.7-10.5-1.1-13.2,3.5L-132.2,964h22.4Z"/>
    <path class="st11" d="M-109.8,964L332.1,198.8c2.7-4.6-3.5-13.2-3.5-13.2L-121,964h11.2Z"/>
    <path class="st28" d="M330,183.1h-11.2s-5.6,9.7-5.6,9.7l5.6,9.7h11.2s5.6-9.7,5.6-9.7l-5.6-9.7Z"/>
  </g>
  <g>
    <path class="st16" d="M3352.1,1464.1l564.4-977.3c3.4-5.9,1.4-13.5-4.5-16.9-5.9-3.4-13.5-1.4-16.9,4.5l-571.5,989.7h28.5Z"/>
    <path class="st8" d="M3352.1,1464.1l564.4-977.3c3.4-5.9-4.5-16.9-4.5-16.9l-574.1,994.2h14.3Z"/>
    <path class="st22" d="M3913.8,466.8h-14.3s-7.1,12.4-7.1,12.4l7.2,12.4h14.3s7.1-12.4,7.1-12.4l-7.1-12.4Z"/>
  </g>
  <g>
    <path class="st4" d="M3037.1,1633.9l636.1-1101.5c3.8-6.7,1.6-15.2-5.1-19-6.7-3.8-15.2-1.6-19,5.1l-644.1,1115.5h32.2Z"/>
    <path class="st3" d="M3037.1,1633.9l636.1-1101.5c3.8-6.7-5.1-19-5.1-19l-647.1,1120.6h16.1Z"/>
    <path class="st5" d="M3670.2,509.8h-16.1s-8.1,14-8.1,14l8.1,14h16.1s8.1-14,8.1-14l-8.1-14Z"/>
  </g>
  <g>
    <path class="st19" d="M-220.2,2299.2L635.7,817c5.2-9,2.1-20.4-6.9-25.6-9-5.2-20.4-2.1-25.6,6.9l-866.7,1500.9h43.3Z"/>
    <path class="st11" d="M-220.2,2299.2L635.7,817c5.2-9-6.9-25.6-6.9-25.6L-241.8,2299.2h21.6Z"/>
    <path class="st28" d="M631.7,786.6h-21.7s-10.8,18.8-10.8,18.8l10.8,18.8h21.7s10.8-18.8,10.8-18.8l-10.8-18.8Z"/>
  </g>
  <g>
    <path class="st21" d="M688.5,3145.5l1174-2033.1c7.1-12.3,2.9-28-9.4-35.1-12.3-7.1-28-2.9-35.1,9.4L629.2,3145.5h59.4Z"/>
    <path class="st13" d="M688.5,3145.5l1174-2033.1c7.1-12.3-9.4-35.1-9.4-35.1L658.8,3145.5h29.7Z"/>
    <path class="st25" d="M1857,1070.8h-29.7s-14.9,25.8-14.9,25.8l14.9,25.8h29.7s14.9-25.8,14.9-25.8l-14.9-25.8Z"/>
  </g>
  <g>
    <path class="st21" d="M17.5,1493.3l418.4-724.5c2.5-4.4,1-10-3.4-12.5-4.4-2.5-10-1-12.5,3.4L-3.7,1493.3h21.2Z"/>
    <path class="st13" d="M17.5,1493.3l418.4-724.5c2.5-4.4-3.4-12.5-3.4-12.5L6.9,1493.3h10.6Z"/>
    <path class="st25" d="M433.9,753.9h-10.6s-5.3,9.2-5.3,9.2l5.3,9.2h10.6s5.3-9.2,5.3-9.2l-5.3-9.2Z"/>
  </g>
  <g>
    <path class="st18" d="M1807,2723.3l951.1-1646.9c5.8-10,2.3-22.7-7.6-28.5-10-5.8-22.7-2.3-28.5,7.6l-963.1,1667.8h48.1Z"/>
    <path class="st10" d="M1807,2723.3l951.1-1646.9c5.8-10-7.6-28.5-7.6-28.5l-967.5,1675.4h24.1Z"/>
    <path class="st27" d="M2753.5,1042.6h-24.1s-12,20.9-12,20.9l12,20.9h24.1s12-20.9,12-20.9l-12-20.9Z"/>
  </g>
  <g>
    <path class="st2" d="M1101.5,3186.1l1193.9-2068.6c1.1-1.8.4-4.1-1.4-5.2-1.8-1.1-4.1-.4-5.2,1.4l-1196.1,2072.4h8.8Z"/>
    <path class="st1" d="M1101.5,3186.1l1193.9-2068.6c1.1-1.8-1.4-5.2-1.4-5.2l-1196.9,2073.8h4.4Z"/>
    <path class="st0" d="M2294.6,1111.3h-4.4s-2.2,3.8-2.2,3.8l2.2,3.8h4.4s2.2-3.8,2.2-3.8l-2.2-3.8Z"/>
  </g>
  <g>
    <path class="st2" d="M271.2,6088.7L3270.5,892c2.6-4.6,1.1-10.4-3.5-13.1-4.6-2.6-10.4-1.1-13.1,3.5L249.2,6088.7h22.1Z"/>
    <path class="st1" d="M271.2,6088.7L3270.5,892c2.6-4.6-3.5-13.1-3.5-13.1L260.2,6088.7h11Z"/>
    <path class="st0" d="M3268.5,876.5h-11.1s-5.5,9.6-5.5,9.6l5.5,9.6h11.1s5.5-9.6,5.5-9.6l-5.5-9.6Z"/>
  </g>
  <g>
    <path class="st15" d="M281.3,3421.8L1603.2,1132.6c2.1-3.6.8-8.1-2.7-10.2-3.6-2.1-8.1-.8-10.2,2.7L264.1,3421.8h17.2Z"/>
    <path class="st7" d="M281.3,3421.8L1603.2,1132.6c2.1-3.6-2.7-10.2-2.7-10.2L272.7,3421.8h8.6Z"/>
    <path class="st24" d="M1601.6,1120.5h-8.6s-4.3,7.5-4.3,7.5l4.3,7.5h8.6s4.3-7.5,4.3-7.5l-4.3-7.5Z"/>
  </g>
  <g>
    <path class="st15" d="M-1181.3,2363.1L140.6,73.9c2.1-3.6.8-8.1-2.7-10.2-3.6-2.1-8.1-.8-10.2,2.7l-1326.2,2296.6h17.2Z"/>
    <path class="st7" d="M-1181.3,2363.1L140.6,73.9c2.1-3.6-2.7-10.2-2.7-10.2l-1327.8,2299.3h8.6Z"/>
    <path class="st24" d="M139,61.8h-8.6s-4.3,7.5-4.3,7.5l4.3,7.5h8.6s4.3-7.5,4.3-7.5l-4.3-7.5Z"/>
  </g>
  <g>
    <path class="st14" d="M2635.8,3043.5L3957.8,754.3c2.1-3.6.8-8.1-2.7-10.2-3.6-2.1-8.1-.8-10.2,2.7l-1326.2,2296.6h17.2Z"/>
    <path class="st6" d="M2635.8,3043.5L3957.8,754.3c2.1-3.6-2.7-10.2-2.7-10.2l-1327.8,2299.3h8.6Z"/>
    <path class="st23" d="M3956.1,742.3h-8.6s-4.3,7.5-4.3,7.5l4.3,7.5h8.6s4.3-7.5,4.3-7.5l-4.3-7.5Z"/>
  </g>
  <g>
    <path class="st20" d="M-212.3,2994.5L978.2,932.9c2.2-3.9.9-8.8-3-11.1-3.9-2.2-8.8-.9-11.1,3L-231.1,2994.5h18.7Z"/>
    <path class="st12" d="M-212.3,2994.5L978.2,932.9c2.2-3.9-3-11.1-3-11.1L-221.7,2994.5h9.4Z"/>
    <path class="st29" d="M976.4,919.7h-9.4s-4.7,8.1-4.7,8.1l4.7,8.1h9.4s4.7-8.1,4.7-8.1l-4.7-8.1Z"/>
  </g>
  <g>
    <path class="st2" d="M-809.1,3654.7L777.1,907.9c4.1-7.1,1.7-16.2-5.4-20.3-7.1-4.1-16.2-1.7-20.3,5.4L-843.4,3654.7h34.4Z"/>
    <path class="st1" d="M-809.1,3654.7L777.1,907.9c4.1-7.1-5.4-20.3-5.4-20.3L-826.3,3654.7h17.2Z"/>
    <path class="st0" d="M773.9,883.8h-17.2s-8.6,14.9-8.6,14.9l8.6,14.9h17.2s8.6-14.9,8.6-14.9l-8.6-14.9Z"/>
  </g>
  <g>
    <path class="st17" d="M-1041.9,4923.3L1191.8,1055.1c8.8-15.2,3.6-34.7-11.7-43.5-15.2-8.8-34.7-3.6-43.5,11.7l-2252.2,3900.1h73.6Z"/>
    <path class="st9" d="M-1041.9,4923.3L1191.8,1055.1c8.8-15.2-11.7-43.5-11.7-43.5l-2258.9,3911.8h36.8Z"/>
    <path class="st26" d="M1185,1003.5h-36.9s-18.4,31.9-18.4,31.9l18.4,31.9h36.8s18.4-31.9,18.4-31.9l-18.4-31.9Z"/>
  </g>
  <g>
    <path class="st17" d="M1086.7,3575.2l1430.5-2478.6c2.1-3.6.9-8.3-2.8-10.4-3.6-2.1-8.3-.9-10.4,2.8l-1434.8,2486.2h17.5Z"/>
    <path class="st9" d="M1086.7,3575.2l1430.5-2478.6c2.1-3.6-2.8-10.4-2.8-10.4l-1436.4,2488.9h8.8Z"/>
    <path class="st26" d="M2515.5,1084.3h-8.8s-4.4,7.6-4.4,7.6l4.4,7.6h8.8s4.4-7.6,4.4-7.6l-4.4-7.6Z"/>
  </g>
  <g>
    <path class="st17" d="M-845.4,2607.8L437.8,384.4c1.1-2,.5-4.5-1.5-5.6-2-1.1-4.5-.5-5.6,1.5L-854.9,2607.8h9.4Z"/>
    <path class="st9" d="M-845.4,2607.8L437.8,384.4c1.1-2-1.5-5.6-1.5-5.6L-850.2,2607.8h4.7Z"/>
    <path class="st26" d="M436.9,377.8h-4.7s-2.4,4.1-2.4,4.1l2.4,4.1h4.7s2.4-4.1,2.4-4.1l-2.4-4.1Z"/>
  </g>
</svg>