<?xml version="1.0" encoding="UTF-8"?>
<svg id="Layer_1" xmlns="http://www.w3.org/2000/svg" version="1.1" viewBox="0 0 2520.9 2910.9">
  <!-- Generator: Adobe Illustrator 30.5.1, SVG Export Plug-In . SVG Version: 2.1.4 Build 3)  -->
  <defs>
    <style>
      .st0 {
        fill: #447099;
        fill-rule: evenodd;
      }

      .st1 {
        fill: #f3f6f8;
      }
    </style>
  </defs>
  <polygon class="st1" points="2420.6 669.9 1467.5 119.4 1260.6 0 1053.7 119.4 100.6 669.9 0 727.8 0 2183.2 100.6 2241.2 1065.7 2798.4 1260.8 2910.9 1456 2798.4 2421.1 2241.2 2520.9 2183.6 2520.9 727.8 2420.6 669.9"/>
  <g>
    <polygon class="st0" points="1155.5 1270.3 1050.5 1455.5 1155.5 1640.7 1365.5 1640.7 1470.5 1455.5 1365.5 1270.3 1155.5 1270.3"/>
    <polygon class="st0" points="1155.5 877 1050.5 1062.3 1155.5 1247.5 1365.5 1247.5 1470.5 1062.3 1365.5 877 1155.5 877"/>
    <polygon class="st0" points="1155.5 1663.5 1050.5 1848.7 1050.5 1848.7 1155.5 2034 1365.5 2034 1470.5 1848.7 1365.5 1663.5 1155.5 1663.5"/>
    <polygon class="st0" points="1155.5 2450 1050.5 2635.2 1155.5 2820.5 1365.5 2820.5 1470.5 2635.2 1365.5 2450 1155.5 2450"/>
    <path class="st0" d="M1236.8,2057.1h-80.8c-30.4,53.7-60.9,107.4-91.3,161.1-4.4,7.8-8.8,15.5-13.2,23.3,34.8,61.5,69.7,122.9,104.5,184.4h209.1c34.8-61.5,69.7-122.9,104.5-184.4-4.4-7.8-8.8-15.5-13.2-23.3-30.4-53.7-60.9-107.4-91.3-161.1h-128.3,0Z"/>
    <polygon class="st0" points="1155.5 483.8 1050.5 669 1155.5 854.3 1365.5 854.3 1470.5 669 1365.5 483.8 1155.5 483.8"/>
    <polygon class="st0" points="1155.5 90.5 1050.5 275.8 1155.5 461 1365.5 461 1470.5 275.8 1365.5 90.5 1155.5 90.5"/>
    <polygon class="st0" points="1819.6 1270.3 1714.6 1455.5 1819.6 1640.7 2029.6 1640.7 2134.6 1455.5 2029.6 1270.3 1819.6 1270.3"/>
    <polygon class="st0" points="1819.6 877 1714.6 1062.3 1819.6 1247.5 2029.6 1247.5 2134.6 1062.3 2029.6 877 1819.6 877"/>
    <polygon class="st0" points="1819.6 1663.5 1714.6 1848.7 1714.6 1848.7 1819.6 2034 2029.6 2034 2134.6 1848.7 2029.6 1663.5 1819.6 1663.5"/>
    <path class="st0" d="M1900.9,2057.1h-80.8c-30.4,53.7-60.9,107.4-91.3,161.1-4.4,7.8-8.8,15.5-13.2,23.3,34.8,61.5,69.7,122.9,104.5,184.4h209.1c34.8-61.5,69.7-122.9,104.5-184.4-4.4-7.8-8.8-15.5-13.2-23.3-30.4-53.7-60.9-107.4-91.3-161.1h-128.3,0Z"/>
    <polygon class="st0" points="1819.6 483.8 1714.6 669 1819.6 854.3 2029.6 854.3 2134.6 669 2029.6 483.8 1819.6 483.8"/>
    <polygon class="st0" points="491.4 1270.3 386.4 1455.5 491.4 1640.7 701.4 1640.7 806.4 1455.5 701.4 1270.3 491.4 1270.3"/>
    <polygon class="st0" points="491.4 877 386.4 1062.3 491.4 1247.5 701.4 1247.5 806.4 1062.3 701.4 877 491.4 877"/>
    <polygon class="st0" points="491.4 1663.5 386.4 1848.7 386.4 1848.7 491.4 2034 701.4 2034 806.4 1848.7 701.4 1663.5 491.4 1663.5"/>
    <path class="st0" d="M572.7,2057.1h-80.8c-30.4,53.7-60.9,107.4-91.3,161.1-4.4,7.8-8.8,15.5-13.2,23.3,34.8,61.5,69.7,122.9,104.5,184.4h209.1c34.8-61.5,69.7-122.9,104.5-184.4-4.4-7.8-8.8-15.5-13.2-23.3-30.4-53.7-60.9-107.4-91.3-161.1h-128.3Z"/>
    <polygon class="st0" points="491.4 483.8 386.4 669 491.4 854.3 701.4 854.3 806.4 669 701.4 483.8 491.4 483.8"/>
    <polygon class="st0" points="823.5 1465.2 718.5 1650.5 823.5 1835.7 1033.4 1835.7 1138.4 1650.5 1033.4 1465.2 823.5 1465.2"/>
    <polygon class="st0" points="823.5 1072 718.5 1257.3 823.5 1442.5 1033.4 1442.5 1138.4 1257.3 1033.4 1072 823.5 1072"/>
    <polygon class="st0" points="823.5 1858.5 718.5 2043.7 718.5 2043.7 823.5 2229 1033.4 2229 1138.4 2043.7 1033.4 1858.5 823.5 1858.5"/>
    <path class="st0" d="M904.7,2252.1h-80.8c-30.4,53.7-60.9,107.4-91.3,161.1-4.4,7.8-8.8,15.5-13.2,23.3,34.8,61.5,69.7,122.9,104.5,184.4h209.1c34.8-61.5,69.7-122.9,104.5-184.4-4.4-7.8-8.8-15.5-13.2-23.3-30.4-53.7-60.9-107.4-91.3-161.1h-128.3Z"/>
    <polygon class="st0" points="823.5 678.8 718.5 864 823.5 1049.3 1033.4 1049.3 1138.4 864 1033.4 678.8 823.5 678.8"/>
    <polygon class="st0" points="823.5 285.5 718.5 470.8 823.5 656 1033.4 656 1138.4 470.8 1033.4 285.5 823.5 285.5"/>
    <polygon class="st0" points="2151.7 1465.2 2046.7 1650.5 2151.7 1835.7 2361.7 1835.7 2466.7 1650.5 2361.7 1465.2 2151.7 1465.2"/>
    <polygon class="st0" points="2151.7 1072 2046.7 1257.3 2151.7 1442.5 2361.7 1442.5 2466.7 1257.3 2361.7 1072 2151.7 1072"/>
    <polygon class="st0" points="2151.7 1858.5 2046.7 2043.7 2046.7 2043.7 2151.7 2229 2361.7 2229 2466.7 2043.7 2361.7 1858.5 2151.7 1858.5"/>
    <polygon class="st0" points="2151.7 678.8 2046.7 864 2151.7 1049.3 2361.7 1049.3 2466.7 864 2361.7 678.8 2151.7 678.8"/>
    <polygon class="st0" points="1487.6 1465.2 1382.6 1650.5 1487.6 1835.7 1697.5 1835.7 1802.5 1650.5 1697.5 1465.2 1487.6 1465.2"/>
    <polygon class="st0" points="1487.6 1072 1382.6 1257.3 1487.6 1442.5 1697.5 1442.5 1802.5 1257.3 1697.5 1072 1487.6 1072"/>
    <polygon class="st0" points="1487.6 1858.5 1382.6 2043.7 1382.6 2043.7 1487.6 2229 1697.5 2229 1802.5 2043.7 1697.5 1858.5 1487.6 1858.5"/>
    <path class="st0" d="M1568.9,2252.1h-80.8c-30.4,53.7-60.9,107.4-91.3,161.1-4.4,7.8-8.8,15.5-13.2,23.3,34.8,61.5,69.7,122.9,104.5,184.4h209.1c34.8-61.5,69.7-122.9,104.5-184.4-4.4-7.8-8.8-15.5-13.2-23.3-30.4-53.7-60.9-107.4-91.3-161.1h-128.3,0Z"/>
    <polygon class="st0" points="1487.6 678.8 1382.6 864 1487.6 1049.3 1697.5 1049.3 1802.5 864 1697.5 678.8 1487.6 678.8"/>
    <polygon class="st0" points="1487.6 285.5 1382.6 470.8 1487.6 656 1697.5 656 1802.5 470.8 1697.5 285.5 1487.6 285.5"/>
    <polygon class="st0" points="159.3 1465.2 54.3 1650.5 159.3 1835.7 369.3 1835.7 474.3 1650.5 369.3 1465.2 159.3 1465.2"/>
    <polygon class="st0" points="159.3 1072 54.3 1257.3 159.3 1442.5 369.3 1442.5 474.3 1257.3 369.3 1072 159.3 1072"/>
    <polygon class="st0" points="159.3 1858.5 54.3 2043.7 54.3 2043.7 159.3 2229 369.3 2229 474.3 2043.7 369.3 1858.5 159.3 1858.5"/>
    <polygon class="st0" points="159.3 678.8 54.3 864 159.3 1049.3 369.3 1049.3 474.3 864 369.3 678.8 159.3 678.8"/>
  </g>
</svg>