<?xml version="1.0" encoding="utf-8"?>
<!-- Generator: Adobe Illustrator 24.0.0, SVG Export Plug-In . SVG Version: 6.00 Build 0)  -->
<svg version="1.1" id="Layer_1" xmlns="http://www.w3.org/2000/svg" xmlns:xlink="http://www.w3.org/1999/xlink" x="0px" y="0px"
	 viewBox="0 0 928.4 241.5" style="enable-background:new 0 0 928.4 241.5;" xml:space="preserve">
<style type="text/css">
	.st0{fill:#75AADB;}
	.st1{fill:#FFFFFF;}
	.st2{fill:#4E4E4E;}
</style>
<g>
	<g>
		
			<ellipse transform="matrix(0.1974 -0.9803 0.9803 0.1974 -34.9603 197.7893)" class="st0" cx="103.3" cy="120.2" rx="102.7" ry="102.7"/>
		<g>
			<path class="st2" d="M227.9,150.7c5.3,3.4,13,6,21.2,6c12.2,0,19.3-6.4,19.3-15.7c0-8.5-4.9-13.5-17.4-18.2
				c-15-5.5-24.3-13.4-24.3-26.2c0-14.3,11.9-25,29.8-25c9.3,0,16.3,2.2,20.2,4.5l-3.3,9.7c-2.9-1.8-9-4.4-17.4-4.4
				c-12.6,0-17.4,7.5-17.4,13.8c0,8.6,5.6,12.8,18.3,17.8c15.6,6,23.4,13.5,23.4,27.1c0,14.2-10.4,26.6-32.1,26.6
				c-8.9,0-18.6-2.7-23.5-6L227.9,150.7z"/>
			<path class="st2" d="M310.4,83.2v15.8h17.2v9.2h-17.2v35.7c0,8.2,2.3,12.8,9,12.8c3.3,0,5.2-0.3,7-0.8l0.5,9.2
				c-2.3,0.8-6,1.6-10.7,1.6c-5.6,0-10.1-1.9-13-5.1c-3.3-3.7-4.6-9.6-4.6-17.4v-36.1h-10.2v-9.2h10.2V86.8L310.4,83.2z"/>
			<path class="st2" d="M396.5,147c0,7,0.1,13,0.5,18.2h-10.7l-0.7-10.8h-0.3c-3,5.3-10.1,12.3-21.9,12.3c-10.4,0-22.8-5.9-22.8-29
				V99.1h12v36.5c0,12.6,4,21.2,14.8,21.2c8.1,0,13.7-5.6,15.8-11.1c0.7-1.6,1.1-3.8,1.1-6.1V99.1h12V147z"/>
			<path class="st2" d="M473.4,68.2v79.9c0,5.9,0.3,12.6,0.5,17.1h-10.7l-0.5-11.5h-0.4c-3.6,7.4-11.5,13-22.3,13
				c-16,0-28.4-13.5-28.4-33.6c-0.1-22,13.7-35.4,29.7-35.4c10.2,0,16.9,4.8,19.9,10h0.3V68.2H473.4z M461.5,126
				c0-1.5-0.1-3.6-0.5-5.1c-1.8-7.5-8.3-13.8-17.4-13.8c-12.4,0-19.8,10.9-19.8,25.4c0,13.4,6.7,24.5,19.5,24.5
				c8.1,0,15.4-5.5,17.6-14.3c0.4-1.6,0.5-3.3,0.5-5.2V126z"/>
			<path class="st2" d="M506.9,80.5c0,4.1-2.9,7.4-7.7,7.4c-4.4,0-7.2-3.3-7.2-7.4c0-4.1,3-7.5,7.5-7.5
				C503.9,73,506.9,76.2,506.9,80.5z M493.5,165.2V99.1h12v66.1H493.5z"/>
			<path class="st2" d="M585.3,131.6c0,24.5-17.1,35.1-32.9,35.1c-17.8,0-31.7-13.1-31.7-34c0-22,14.6-35,32.8-35
				C572.5,97.7,585.3,111.5,585.3,131.6z M533,132.3c0,14.5,8.2,25.4,19.9,25.4c11.5,0,20.1-10.8,20.1-25.7
				c0-11.2-5.6-25.3-19.8-25.3C539.2,106.7,533,119.8,533,132.3z"/>
		</g>
		<g>
			<path class="st1" d="M138.4,153h11.1v8.7h-17l-28.2-42.3h-15V153h14.7v8.7h-37V153h12.7V78.6L67.1,77v-8.2
				c4.8,1.1,9,1.9,14.2,1.9c7.9,0,15.9-1.9,23.8-1.9c15.3,0,29.6,7,29.6,24c0,13.2-7.9,21.5-20.1,25.1L138.4,153z M89.4,111.1l8,0.2
				c19.7,0.3,27.2-7.3,27.2-17.3c0-11.8-8.5-16.4-19.3-16.4c-5.1,0-10.4,0.5-15.9,1.1V111.1z"/>
		</g>
		<g>
			<path class="st2" d="M578.6,73c-4.3,0-7.8,3.5-7.8,7.8c0,4.3,3.5,7.8,7.8,7.8c4.3,0,7.8-3.5,7.8-7.8
				C586.3,76.4,582.9,73,578.6,73z M585.1,80.7c0,3.6-2.9,6.5-6.5,6.5c-3.6,0-6.5-2.9-6.5-6.5c0-3.6,2.9-6.5,6.5-6.5
				C582.2,74.2,585.1,77.2,585.1,80.7z"/>
			<path class="st2" d="M581.3,83.9l-1.9-2.8c1.1-0.4,1.7-1.2,1.7-2.3c0-1.7-1.4-2.3-2.8-2.3c-0.4,0-0.7,0-1.1,0.1
				c-0.3,0-0.7,0.1-1,0.1c-0.5,0-0.8-0.1-1.2-0.2l-0.2,0v1.1l1.1,0.1v6.2h-1.1V85h3.6v-1.1h-1.3v-2.6h1.1l2.4,3.7l0.1,0.1h1.8v-1.1
				H581.3z M579.8,78.9c0,0.4-0.2,0.7-0.5,1c-0.4,0.3-0.9,0.4-1.7,0.4l-0.6,0v-2.5c0.5,0,0.9-0.1,1.2-0.1
				C579,77.6,579.8,77.8,579.8,78.9z"/>
		</g>
	</g>
	<g>
		<rect x="684.8" y="0" class="st2" width="3" height="241.5"/>
	</g>
</g>
<g>
	<g>
		<path d="M830.2,75.4h28.1c6.8,0,15.9,0,20.5,2.8c5.1,3,9.1,8.6,9.1,16.2c0,8.3-4.3,14.4-11.5,17.4v0.2c9.6,2,14.8,9.1,14.8,18.7
			c0,11.4-8.1,22.3-23.6,22.3h-37.5V75.4z M840.5,108.8h20.6c11.7,0,16.5-4.2,16.5-12.4c0-10.8-7.6-12.3-16.5-12.3h-20.6V108.8z
			 M840.5,144.3h25.9c8.9,0,14.6-5.4,14.6-13.9c0-10.1-8.1-12.9-16.8-12.9h-23.6V144.3z"/>
		<path d="M917.6,114.2c0,32.6-26.4,59-59,59c-32.6,0-59-26.4-59-59c0-32.6,26.4-59,59-59C891.2,55.2,917.6,81.7,917.6,114.2z
			 M858.6,46.2c-37.5,0-67.9,30.4-67.9,67.9c0,37.5,30.4,67.9,67.9,67.9c37.5,0,68-30.4,68-67.9C926.6,76.7,896.2,46.2,858.6,46.2z"
			/>
	</g>
	<g>
		<rect x="790.8" y="196.5" width="135.6" height="8.9"/>
		<path d="M922.2,186.7c0.2,0,0.3,0,0.5,0c0.1,0,0.3,0,0.4-0.1c0.1-0.1,0.2-0.1,0.3-0.2c0.1-0.1,0.1-0.2,0.1-0.4
			c0-0.2,0-0.3-0.1-0.4c-0.1-0.1-0.1-0.2-0.2-0.2c-0.1-0.1-0.2-0.1-0.3-0.1c-0.1,0-0.2,0-0.4,0h-1v1.5H922.2z M922.5,184.6
			c0.6,0,1,0.1,1.2,0.3c0.3,0.2,0.4,0.6,0.4,1c0,0.4-0.1,0.7-0.4,0.9c-0.2,0.2-0.5,0.3-0.9,0.4l1.4,2.1h-0.8l-1.3-2h-0.8v2h-0.7
			v-4.7H922.5z M919.2,188.3c0.2,0.4,0.4,0.8,0.7,1.1c0.3,0.3,0.6,0.6,1.1,0.7c0.4,0.2,0.8,0.3,1.3,0.3c0.5,0,0.9-0.1,1.3-0.3
			c0.4-0.2,0.8-0.4,1.1-0.7c0.3-0.3,0.5-0.7,0.7-1.1c0.2-0.4,0.3-0.9,0.3-1.4c0-0.5-0.1-0.9-0.3-1.4c-0.2-0.4-0.4-0.8-0.7-1.1
			c-0.3-0.3-0.7-0.5-1.1-0.7c-0.4-0.2-0.8-0.3-1.3-0.3c-0.5,0-0.9,0.1-1.3,0.3c-0.4,0.2-0.8,0.4-1.1,0.7c-0.3,0.3-0.5,0.7-0.7,1.1
			c-0.2,0.4-0.3,0.9-0.3,1.4C919,187.4,919,187.9,919.2,188.3 M918.5,185.3c0.2-0.5,0.5-0.9,0.9-1.3c0.4-0.4,0.8-0.6,1.3-0.8
			c0.5-0.2,1-0.3,1.6-0.3c0.6,0,1.1,0.1,1.6,0.3c0.5,0.2,0.9,0.5,1.3,0.8c0.4,0.4,0.7,0.8,0.9,1.3c0.2,0.5,0.3,1,0.3,1.6
			c0,0.6-0.1,1.1-0.3,1.6c-0.2,0.5-0.5,0.9-0.9,1.3c-0.4,0.4-0.8,0.6-1.3,0.9c-0.5,0.2-1,0.3-1.6,0.3c-0.5,0-1.1-0.1-1.6-0.3
			c-0.5-0.2-0.9-0.5-1.3-0.9c-0.4-0.4-0.7-0.8-0.9-1.3c-0.2-0.5-0.3-1-0.3-1.6C918.2,186.3,918.3,185.8,918.5,185.3"/>
	</g>
	<g>
		<path d="M807.3,16.4c-0.3-0.5-0.7-1-1.2-1.4c-0.5-0.4-1-0.7-1.6-0.9c-0.6-0.2-1.2-0.3-1.9-0.3c-1.2,0-2.2,0.2-3.1,0.7
			c-0.8,0.5-1.5,1.1-2.1,1.9c-0.5,0.8-0.9,1.7-1.2,2.7c-0.2,1-0.4,2.1-0.4,3.1c0,1,0.1,2,0.4,3c0.2,1,0.6,1.9,1.2,2.6
			c0.5,0.8,1.2,1.4,2.1,1.9c0.8,0.5,1.9,0.7,3.1,0.7c1.6,0,2.9-0.5,3.9-1.5c0.9-1,1.5-2.3,1.7-4h5.2c-0.1,1.5-0.5,2.9-1.1,4.2
			c-0.6,1.2-1.3,2.3-2.3,3.2c-0.9,0.9-2,1.5-3.3,2c-1.3,0.5-2.6,0.7-4.2,0.7c-1.9,0-3.6-0.3-5.1-1c-1.5-0.7-2.8-1.6-3.8-2.7
			c-1-1.1-1.8-2.5-2.4-4c-0.6-1.5-0.8-3.2-0.8-5c0-1.8,0.3-3.5,0.8-5.1c0.5-1.6,1.3-2.9,2.4-4.1c1-1.2,2.3-2.1,3.8-2.7
			c1.5-0.7,3.2-1,5.1-1c1.4,0,2.6,0.2,3.8,0.6c1.2,0.4,2.3,1,3.2,1.7c1,0.7,1.7,1.7,2.4,2.8c0.6,1.1,1,2.4,1.2,3.8h-5.2
			C807.8,17.5,807.6,16.9,807.3,16.4z"/>
		<path d="M820.3,30.1c0.7,0.7,1.8,1.1,3.2,1.1c1,0,1.8-0.2,2.5-0.7c0.7-0.5,1.1-1,1.3-1.6h4.3c-0.7,2.1-1.7,3.7-3.2,4.6
			c-1.4,0.9-3.1,1.4-5.2,1.4c-1.4,0-2.7-0.2-3.8-0.7c-1.1-0.4-2.1-1.1-2.9-1.9c-0.8-0.8-1.4-1.8-1.8-3c-0.4-1.1-0.6-2.4-0.6-3.8
			c0-1.3,0.2-2.6,0.7-3.7c0.4-1.1,1.1-2.1,1.9-3c0.8-0.8,1.8-1.5,2.9-2c1.1-0.5,2.3-0.7,3.7-0.7c1.5,0,2.8,0.3,4,0.9
			c1.1,0.6,2,1.4,2.8,2.4c0.7,1,1.2,2.1,1.6,3.4c0.3,1.3,0.4,2.6,0.3,3.9h-12.8C819.2,28.2,819.6,29.4,820.3,30.1z M825.9,20.8
			c-0.6-0.6-1.5-1-2.7-1c-0.8,0-1.4,0.1-1.9,0.4c-0.5,0.3-0.9,0.6-1.2,1c-0.3,0.4-0.5,0.8-0.7,1.2c-0.1,0.4-0.2,0.8-0.2,1.2h7.9
			C826.9,22.3,826.4,21.4,825.9,20.8z"/>
		<path d="M838.8,16.6v3.3h0.1c0.2-0.6,0.5-1.1,0.9-1.5c0.4-0.5,0.8-0.9,1.3-1.2c0.5-0.3,1-0.6,1.6-0.8c0.6-0.2,1.2-0.3,1.8-0.3
			c0.3,0,0.7,0.1,1.1,0.2v4.5c-0.2,0-0.5-0.1-0.8-0.1c-0.3,0-0.6-0.1-0.9-0.1c-0.9,0-1.6,0.1-2.3,0.4c-0.6,0.3-1.1,0.7-1.5,1.2
			c-0.4,0.5-0.6,1.1-0.8,1.8c-0.2,0.7-0.2,1.4-0.2,2.2v8h-4.9V16.6H838.8z"/>
		<path d="M858.6,16.6v3.3h-3.6v8.8c0,0.8,0.1,1.4,0.4,1.6c0.3,0.3,0.8,0.4,1.6,0.4c0.3,0,0.5,0,0.8,0c0.3,0,0.5-0.1,0.7-0.1v3.8
			c-0.4,0.1-0.9,0.1-1.4,0.1c-0.5,0-1,0-1.5,0c-0.8,0-1.5-0.1-2.1-0.2c-0.7-0.1-1.3-0.3-1.8-0.6c-0.5-0.3-0.9-0.7-1.2-1.3
			c-0.3-0.5-0.4-1.3-0.4-2.2V19.9h-3v-3.3h3v-5.3h4.9v5.3H858.6z"/>
		<path d="M861.5,13.8v-4h4.9v4H861.5z M866.4,16.6v17.8h-4.9V16.6H866.4z"/>
		<path d="M868.3,19.9v-3.3h2.9v-1.4c0-1.6,0.5-2.9,1.5-3.9c1-1,2.5-1.5,4.5-1.5c0.4,0,0.9,0,1.3,0.1c0.4,0,0.9,0.1,1.3,0.1v3.6
			c-0.6-0.1-1.2-0.1-1.8-0.1c-0.7,0-1.1,0.2-1.4,0.5c-0.3,0.3-0.4,0.8-0.4,1.6v1.1h3.4v3.3h-3.4v14.5h-4.9V19.9H868.3z"/>
		<path d="M882.8,13.8v-4h4.9v4H882.8z M887.6,16.6v17.8h-4.9V16.6H887.6z"/>
		<path d="M895.3,30.1c0.7,0.7,1.8,1.1,3.2,1.1c1,0,1.8-0.2,2.5-0.7c0.7-0.5,1.1-1,1.3-1.6h4.3c-0.7,2.1-1.7,3.7-3.2,4.6
			c-1.4,0.9-3.1,1.4-5.2,1.4c-1.4,0-2.7-0.2-3.8-0.7c-1.1-0.4-2.1-1.1-2.9-1.9c-0.8-0.8-1.4-1.8-1.8-3c-0.4-1.1-0.6-2.4-0.6-3.8
			c0-1.3,0.2-2.6,0.7-3.7c0.4-1.1,1.1-2.1,1.9-3c0.8-0.8,1.8-1.5,2.9-2c1.1-0.5,2.3-0.7,3.7-0.7c1.5,0,2.8,0.3,4,0.9
			c1.1,0.6,2,1.4,2.8,2.4c0.7,1,1.2,2.1,1.6,3.4c0.3,1.3,0.4,2.6,0.3,3.9h-12.8C894.2,28.2,894.6,29.4,895.3,30.1z M900.9,20.8
			c-0.6-0.6-1.5-1-2.7-1c-0.8,0-1.4,0.1-1.9,0.4c-0.5,0.3-0.9,0.6-1.2,1c-0.3,0.4-0.5,0.8-0.7,1.2c-0.1,0.4-0.2,0.8-0.2,1.2h7.9
			C901.8,22.3,901.4,21.4,900.9,20.8z"/>
		<path d="M921.8,32.1c-0.6,1-1.3,1.7-2.3,2.1c-0.9,0.4-2,0.6-3.1,0.6c-1.3,0-2.5-0.3-3.5-0.8c-1-0.5-1.8-1.2-2.5-2.1
			c-0.7-0.9-1.1-1.9-1.5-3c-0.3-1.1-0.5-2.3-0.5-3.6c0-1.2,0.2-2.3,0.5-3.5c0.3-1.1,0.8-2.1,1.5-2.9c0.7-0.8,1.5-1.5,2.5-2
			c1-0.5,2.1-0.8,3.4-0.8c1.1,0,2.1,0.2,3,0.7c1,0.4,1.7,1.1,2.3,2h0.1V9.8h4.9v24.5h-4.6L921.8,32.1L921.8,32.1z M921.5,23.3
			c-0.1-0.7-0.4-1.3-0.7-1.8c-0.3-0.5-0.8-0.9-1.3-1.3c-0.5-0.3-1.2-0.5-2-0.5s-1.5,0.2-2,0.5c-0.5,0.3-1,0.7-1.3,1.3
			c-0.3,0.5-0.6,1.1-0.7,1.8c-0.2,0.7-0.2,1.4-0.2,2.1c0,0.7,0.1,1.4,0.2,2.1c0.2,0.7,0.4,1.3,0.8,1.8c0.4,0.5,0.8,1,1.3,1.3
			c0.5,0.3,1.2,0.5,1.9,0.5c0.8,0,1.5-0.2,2-0.5c0.5-0.3,1-0.7,1.3-1.3c0.3-0.5,0.5-1.2,0.7-1.8c0.1-0.7,0.2-1.4,0.2-2.1
			C921.8,24.7,921.7,24,921.5,23.3z"/>
	</g>
	<g>
		<path d="M802.7,222.9c-0.2-1.7-1.9-3-3.8-3c-3.4,0-4.7,2.9-4.7,5.9c0,2.9,1.3,5.8,4.7,5.8c2.3,0,3.6-1.6,3.9-3.9h3.7
			c-0.4,4.3-3.4,7.1-7.6,7.1c-5.3,0-8.5-4-8.5-9c0-5.1,3.1-9.1,8.5-9.1c3.8,0,7,2.2,7.5,6.2H802.7z"/>
		<path d="M814.5,221.5c3.9,0,6.5,2.6,6.5,6.6c0,4-2.5,6.6-6.5,6.6c-3.9,0-6.5-2.6-6.5-6.6C808,224.1,810.6,221.5,814.5,221.5z
			 M814.5,232.1c2.3,0,3-2,3-4c0-2-0.7-4-3-4c-2.3,0-3,2-3,4C811.5,230.1,812.2,232.1,814.5,232.1z"/>
		<path d="M823.1,221.8h3.3v2.3h0.1c0.6-1.6,2.3-2.7,4-2.7c0.2,0,0.5,0,0.8,0.1v3.2c-0.3-0.1-0.8-0.1-1.2-0.1c-2.5,0-3.4,1.8-3.4,4
			v5.6h-3.4V221.8z"/>
		<path d="M832.5,221.9h3.3v1.6h0c0.8-1.3,2.2-1.9,3.7-1.9c3.9,0,5.7,3.2,5.7,6.7c0,3.3-1.8,6.5-5.5,6.5c-1.5,0-2.9-0.7-3.7-1.9
			h-0.1v6h-3.4V221.9z M841.8,228.1c0-2-0.8-4-3-4c-2.2,0-3,2-3,4c0,2,0.8,4,3,4C841,232.1,841.8,230.2,841.8,228.1z"/>
		<path d="M852.7,221.5c3.9,0,6.5,2.6,6.5,6.6c0,4-2.5,6.6-6.5,6.6c-3.9,0-6.5-2.6-6.5-6.6C846.3,224.1,848.8,221.5,852.7,221.5z
			 M852.7,232.1c2.3,0,3-2,3-4c0-2-0.7-4-3-4c-2.3,0-3,2-3,4C849.7,230.1,850.4,232.1,852.7,232.1z"/>
		<path d="M861.3,221.8h3.3v2.3h0.1c0.6-1.6,2.3-2.7,4-2.7c0.2,0,0.5,0,0.8,0.1v3.2c-0.3-0.1-0.8-0.1-1.2-0.1c-2.5,0-3.4,1.8-3.4,4
			v5.6h-3.4V221.8z"/>
		<path d="M870.4,225.7c0.2-3.2,3.1-4.2,5.9-4.2c2.5,0,5.5,0.6,5.5,3.6v6.5c0,1.1,0.1,2.3,0.4,2.8h-3.5c-0.1-0.4-0.2-0.8-0.2-1.2
			c-1.1,1.1-2.7,1.5-4.2,1.5c-2.4,0-4.3-1.2-4.3-3.8c0-2.8,2.1-3.5,4.3-3.8c2.1-0.3,4.1-0.2,4.1-1.6c0-1.5-1-1.7-2.2-1.7
			c-1.3,0-2.2,0.5-2.3,1.9H870.4z M878.3,228.2c-0.6,0.5-1.8,0.5-2.9,0.7c-1.1,0.2-2,0.6-2,1.8c0,1.3,1,1.6,2.1,1.6
			c2.7,0,2.8-2.1,2.8-2.9V228.2z"/>
		<path d="M888.7,221.9h2.5v2.3h-2.5v6.2c0,1.2,0.3,1.5,1.5,1.5c0.4,0,0.7,0,1.1-0.1v2.7c-0.6,0.1-1.3,0.1-2,0.1
			c-2.1,0-3.9-0.5-3.9-3v-7.4h-2.1v-2.3h2.1v-3.8h3.4V221.9z"/>
		<path d="M897.3,219.9h-3.4v-2.8h3.4V219.9z M893.8,221.9h3.4v12.5h-3.4V221.9z"/>
		<path d="M906,221.5c3.9,0,6.5,2.6,6.5,6.6c0,4-2.5,6.6-6.5,6.6c-3.9,0-6.5-2.6-6.5-6.6C899.6,224.1,902.1,221.5,906,221.5z
			 M906,232.1c2.4,0,3.1-2,3.1-4c0-2-0.7-4-3.1-4c-2.3,0-3,2-3,4C903,230.1,903.7,232.1,906,232.1z"/>
		<path d="M914.7,221.9h3.3v1.7h0.1c0.9-1.4,2.4-2.1,3.8-2.1c3.7,0,4.6,2.1,4.6,5.2v7.7H923v-7.1c0-2.1-0.6-3.1-2.2-3.1
			c-1.9,0-2.7,1-2.7,3.6v6.6h-3.4V221.9z"/>
	</g>
</g>
</svg>
