<?xml version="1.0" encoding="UTF-8"?><svg id="a" xmlns="http://www.w3.org/2000/svg" viewBox="0 0 410 410"><path d="M205.007,0L27.466,102.496v205.007l177.584,102.496,177.485-102.44V102.496L205.007,0Z" style="fill:#447099;"/><g id="b"><polygon id="c" points="127.75 178.527 139.607 173.284 193.274 149.569 205 144.399 334.661 87.111 334.661 156.213 282.236 178.527 270.378 173.284 325.184 149.948 325.184 101.656 216.712 149.569 205 154.753 151.553 178.366 139.68 183.608 101.858 200.314 101.858 212.713 139.096 229.17 150.968 234.413 205.832 258.639 217.456 263.78 325.184 311.371 325.184 262.568 270.948 239.495 282.82 234.252 334.661 256.317 334.661 325.916 205.862 269.008 194.223 263.867 139.038 239.495 127.165 234.252 92.395 218.875 92.395 194.152 127.75 178.527" style="fill:#fff;"/><polygon points="217.077 206.258 270.291 183.608 258.433 178.366 192.894 206.258 259.017 234.413 270.875 229.17 217.077 206.258" style="fill:#fff;"/><polygon id="d" points="139.096 229.17 150.968 234.413 205 211.413 192.909 206.258 139.096 229.17" style="fill:#fff;"/><polygon id="e" points="151.553 178.366 139.68 183.608 192.909 206.258 205 201.118 151.553 178.366" style="fill:#fff;"/><polygon id="f" points="282.236 178.527 270.378 173.284 216.712 149.569 205 144.399 75.339 87.111 75.339 156.213 127.75 178.527 139.607 173.284 84.802 149.948 84.802 101.656 193.274 149.569 205 154.753 258.447 178.366 270.305 183.608 308.127 200.314 308.127 212.713 270.889 229.17 259.017 234.413 204.168 258.639 192.529 263.78 84.802 311.371 84.802 262.568 139.038 239.495 127.165 234.252 75.339 256.317 75.339 325.916 204.124 269.008 215.762 263.867 270.948 239.495 282.82 234.252 317.605 218.875 317.605 194.152 282.236 178.527" style="fill:#fff;"/></g></svg>