<svg xmlns="http://www.w3.org/2000/svg" width="1920" height="1080" viewBox="0 0 1920 1080">
  <rect width="1920" height="1080" fill="#4D6E8E"/>
  <svg x="278.5" y="519.5" width="800" height="167.5" version="1.1" id="Layer_1" xmlns="http://www.w3.org/2000/svg" xmlns:xlink="http://www.w3.org/1999/xlink"
	 viewBox="0 0 599 125.4" enable-background="new 0 0 599 125.4" xml:space="preserve">
<g>
	<path fill-rule="evenodd" clip-rule="evenodd" fill="white" d="M56,54.4V1.5C27.9,3.5,5.6,26.2,4.1,54.4H56z"/>
	<path fill-rule="evenodd" clip-rule="evenodd" fill="white" d="M63,54.4h52.9C114.4,25.9,91.5,3,63,1.5V54.4z"/>
	<path fill-rule="evenodd" clip-rule="evenodd" fill="white" d="M56,61.4H4.2c2,27.7,24.1,49.9,51.8,51.8V61.4z"/>
	<path fill-rule="evenodd" clip-rule="evenodd" fill="white" d="M63,61.4v51.9c28.2-1.5,50.9-23.8,52.8-51.9H63z"/>
</g>
<path fill="white" d="M586.1,23h2v-4.4h1.4l2.6,4.4h2.1l-2.8-4.5c0.7-0.1,1.3-0.4,1.8-0.8c0.5-0.5,0.7-1.2,0.7-2.1
	c0-1-0.3-1.8-0.9-2.4c-0.6-0.6-1.6-0.8-2.8-0.8h-4.1V23z M588,14.1h1.4c0.3,0,0.6,0,0.9,0c0.3,0,0.6,0.1,0.8,0.2
	c0.2,0.1,0.4,0.2,0.6,0.5c0.2,0.2,0.2,0.5,0.2,0.8c0,0.3-0.1,0.6-0.2,0.8c-0.2,0.2-0.3,0.4-0.6,0.5c-0.2,0.1-0.5,0.2-0.8,0.2
	c-0.3,0-0.6,0-0.9,0H588V14.1z M581.1,21.4c0.5,1.1,1.2,2.1,2,3c0.8,0.8,1.8,1.5,2.9,2s2.3,0.7,3.6,0.7c1.3,0,2.5-0.2,3.6-0.7
	s2.1-1.2,3-2c0.8-0.8,1.5-1.8,2-3c0.5-1.1,0.7-2.3,0.7-3.6c0-1.3-0.2-2.5-0.7-3.6c-0.5-1.1-1.2-2.1-2-2.9c-0.8-0.8-1.8-1.5-3-2
	c-1.1-0.5-2.3-0.7-3.6-0.7c-1.3,0-2.5,0.2-3.6,0.7c-1.1,0.5-2.1,1.2-2.9,2c-0.8,0.8-1.5,1.8-2,2.9c-0.5,1.1-0.7,2.3-0.7,3.6
	C580.4,19.1,580.6,20.3,581.1,21.4z M582.6,14.8c0.4-0.9,0.9-1.7,1.6-2.4c0.7-0.7,1.5-1.2,2.4-1.6c0.9-0.4,1.9-0.6,3-0.6
	c1,0,2,0.2,3,0.6c0.9,0.4,1.7,0.9,2.4,1.6c0.7,0.7,1.2,1.5,1.6,2.4c0.4,0.9,0.6,1.9,0.6,3c0,1-0.2,2-0.6,3c-0.4,0.9-0.9,1.7-1.6,2.4
	c-0.7,0.7-1.5,1.2-2.4,1.6c-0.9,0.4-1.9,0.6-3,0.6c-1.1,0-2-0.2-3-0.6c-0.9-0.4-1.7-0.9-2.4-1.6c-0.7-0.7-1.2-1.5-1.6-2.4
	c-0.4-0.9-0.6-1.9-0.6-3C582,16.7,582.2,15.7,582.6,14.8z"/>
<path fill="white" d="M214.6,24.8v13.1c-5.8-10.1-16-16.6-29.4-16.6c-21.3,0-36.2,16.2-36.2,38.1c0,22.1,14.9,37.9,36.2,37.9
	c13.4,0,23.7-6.4,29.4-16.5V123c0,1.4,1,2.4,2.4,2.4h4c1.4,0,2.4-1,2.4-2.4V24.8c0-1.4-1-2.4-2.4-2.4h-4
	C215.6,22.4,214.6,23.4,214.6,24.8z M186.1,88.8c-17.1,0-28.6-12.2-28.6-29.4s11.5-29.8,28.6-29.8c17.3,0,28.5,12.5,28.5,29.8
	S203.4,88.8,186.1,88.8z"/>
<path fill="white" d="M298.4,24.8v42.1c0,14.6-9.9,22.7-22.7,22.7c-12.6,0-22.7-8.2-22.7-22.7V24.8c0-1.4-1-2.4-2.4-2.4h-4
	c-1.4,0-2.4,1-2.4,2.4V68c0,20.2,14.4,29.3,29.6,29.3c9.8,0,19.2-3.8,24.6-12.2v8.5c0,1.4,1,2.4,2.4,2.4h4c1.4,0,2.4-1,2.4-2.4V24.8
	c0-1.4-1-2.4-2.4-2.4h-4C299.4,22.4,298.4,23.4,298.4,24.8z"/>
<path fill="white" d="M391.7,24.8v13c-5.8-10.1-16-16.5-29.4-16.5c-21.3,0-36.2,15.8-36.2,37.9c0,21.9,14.9,38.1,36.2,38.1
	c13.4,0,23.7-6.6,29.4-16.6v13c0,1.4,1,2.4,2.4,2.4h4c1.4,0,2.4-1,2.4-2.4V24.8c0-1.4-1-2.4-2.4-2.4h-4
	C392.7,22.4,391.7,23.4,391.7,24.8z M363.2,88.8c-17.1,0-28.6-12.3-28.6-29.6s11.5-29.6,28.6-29.6c17.3,0,28.5,12.3,28.5,29.6
	S380.5,88.8,363.2,88.8z"/>
<path fill="white" d="M430.1,36V24.8c0-1.4-1-2.4-2.4-2.4h-4c-1.4,0-2.4,1-2.4,2.4v68.8c0,1.4,1,2.4,2.4,2.4h4
	c1.4,0,2.4-1,2.4-2.4V54.4c0-16,11.5-23.5,23.7-24.6c1.4-0.2,2.2-1.1,2.2-2.6v-3.5c0-1.6-0.8-2.4-2.4-2.2
	C443.9,22.2,435.1,27,430.1,36z"/>
<path fill="white" d="M505,27v-2.2c0-1.4-1-2.4-2.4-2.4h-16v-20c0-1.4-1-2.4-2.4-2.4h-4c-1.4,0-2.4,1-2.4,2.4v20h-8.2
	c-1.4,0-2.4,1-2.4,2.4V27c0,1.4,1,2.4,2.4,2.4h8.2v50.2c0,10.4,6.4,16.3,16.5,16.3h7.5c1.4,0,2.4-1,2.4-2.4V91c0-1.4-1-2.4-2.4-2.4
	H497c-5.6,0-10.4-2.6-10.4-10.1V29.4h16C504,29.4,505,28.5,505,27z"/>
<path fill="white" d="M552.7,97.4c22.1,0,37.1-16.3,37.1-38.2c0-22.1-15-38.1-37.1-38.1s-37.3,16-37.3,38.1
C515.4,81.1,530.6,97.4,552.7,97.4z M552.7,88.8c-17,0-28.5-12.6-28.5-29.6s11.5-29.6,28.5-29.6c17,0,28.2,12.6,28.2,29.6
S569.6,88.8,552.7,88.8z"/>
</svg>
  <text x="1138.5" y="649.5" fill="#FFFFFF" font-family="'Source Sans Pro', 'Source Sans 3', sans-serif" font-weight="700" font-size="270">1.10</text>
  <svg x="1008.5" y="232.5" width="230" height="230" id="emoji" viewBox="0 0 72 72" xmlns="http://www.w3.org/2000/svg">
  <g id="color">
    <path fill="#D0CFCE" stroke="none" d="M9.5037,22.9282l4.7907,6.4314l0,0c-0.4471,1.2757-1.6109,2.1572-2.9506,2.2346h0l-4.7907-6.4314l0,0 C6.7573,23.7261,8.0783,22.7256,9.5037,22.9282L9.5037,22.9282z"/>
    <polygon fill="#9B9B9A" stroke="none" points="42.9334,27.8189 18.4324,58.077 23.9661,61.9889 45.813,34.6609 48.0968,31.9466"/>
    <path fill="#9B9B9A" stroke="none" d="M46.7811,32.0332c3.2442,2.5754,8.6578,1.1565,12.0916-3.169s3.5876-9.9199,0.3434-12.4953l-5.1471,6.4838 l-2.8327-0.0507l-0.6772-2.7661l5.1323-6.4651c-3.2442-2.5754-8.6578-1.1565-12.0916,3.169s-3.5876,9.9199-0.3434,12.4953"/>
    <polygon fill="#A57939" stroke="none" points="27.3466,25.9823 39.097,41.705 42.5132,44.0908 51.6308,58.4759 51.6308,58.4759 48.4324,60.7522 47.3663,61.511 37.1826,47.8846 35.8987,43.9813 24.1483,28.2586"/>
    <path fill="#9B9B9A" stroke="none" d="M12.0253,19.9354l5.9453,7.9154l10.177-7.6439l-3.3973-4.5231c0,0,6.7846-5.0959,10.7448-4.5331 c0,0-6.6489-2.9652-13.2928,1.1407S12.0253,19.9354,12.0253,19.9354z"/>
  </g>
  <g id="hair"/>
  <g id="skin"/>
  <g id="skin-shadow"/>
  <g id="line">
    <line x1="41.7188" x2="46.7811" y1="38.5092" y2="32.0332" fill="#000000" stroke="none"/>
    <line x1="43.3629" x2="38.7032" y1="29.3197" y2="35.08" fill="#000000" stroke="none"/>
    <polygon fill="none" stroke="#000000" stroke-linecap="round" stroke-linejoin="round" stroke-miterlimit="10" stroke-width="2" points="52,58.9064 40.9019,43.1756 37.8076,40.9408 27.2299,26.2257 24.2936,28.3506 34.8713,43.0658 36.0081,46.7171 47.4967,62.227"/>
    <path fill="none" stroke="#000000" stroke-linecap="round" stroke-linejoin="round" stroke-miterlimit="10" stroke-width="2" d="M12.5106,19.7899l5.7909,8.029l10.323-7.4455l-3.3091-4.588c0,0,6.882-4.9637,10.8306-4.3242c0,0-6.5903-3.0933-13.3124,0.8832 S12.5106,19.7899,12.5106,19.7899z"/>
    <path fill="none" stroke="#000000" stroke-linecap="round" stroke-linejoin="round" stroke-miterlimit="10" stroke-width="2" d="M9.9316,22.7333l4.6653,6.5229l0,0c-0.4717,1.2669-1.6524,2.1256-2.9933,2.1771h0l-4.6653-6.5229l0,0 C7.1702,23.4779,8.5104,22.5031,9.9316,22.7333L9.9316,22.7333z"/>
    <line x1="41.2893" x2="46.3516" y1="38.5092" y2="32.0332" fill="none" stroke="#000000" stroke-linecap="round" stroke-linejoin="round" stroke-miterlimit="10" stroke-width="2"/>
    <line x1="42.9334" x2="38.2737" y1="29.3197" y2="35.08" fill="none" stroke="#000000" stroke-linecap="round" stroke-linejoin="round" stroke-miterlimit="10" stroke-width="2"/>
    <path fill="none" stroke="#000000" stroke-linecap="round" stroke-linejoin="round" stroke-miterlimit="10" stroke-width="2" d="M46.3516,32.0332c3.2442,2.5754,8.6578,1.1565,12.0916-3.169s3.5876-9.9199,0.3434-12.4953l-5.1471,6.4838l-2.8327-0.0507 l-0.6772-2.7661l5.1323-6.4651c-3.2442-2.5754-8.6578-1.1565-12.0916,3.169c-3.4338,4.3256-3.5876,9.9199-0.3434,12.4953"/>
    <polyline fill="none" stroke="#000000" stroke-linecap="round" stroke-linejoin="round" stroke-miterlimit="10" stroke-width="2" points="30.818,44.3856 19,58.9064 23,61.9064 32.9587,49.1665"/>
  </g>
</svg>
</svg>
